<?xml version="1.0" encoding="UTF-8"?>
<svg version="1.1" xmlns="http://www.w3.org/2000/svg" width="1350" height="844">
<path d="M0 0 C1.47123246 0.50187803 2.9451679 0.99591193 4.421875 1.48144531 C27.54456573 9.11503004 49.84102673 20.52562394 70.234375 33.76220703 C71.42764404 34.53298584 71.42764404 34.53298584 72.64501953 35.31933594 C88.08307434 45.37525984 102.195291 56.80779191 115.65625 69.36767578 C117.91550182 71.46604148 120.21023788 73.50109379 122.546875 75.51220703 C130.20705282 82.17672233 130.20705282 82.17672233 133.234375 85.76220703 C133.234375 86.42220703 133.234375 87.08220703 133.234375 87.76220703 C133.894375 87.76220703 134.554375 87.76220703 135.234375 87.76220703 C136.64453125 89.16064453 136.64453125 89.16064453 138.296875 91.13720703 C140.98374605 94.3070487 143.72835972 97.39631548 146.546875 100.44970703 C151.2777149 105.70708223 155.61618295 111.22394561 159.83935547 116.89160156 C160.80003483 118.17979289 161.76549261 119.4644299 162.73486328 120.74609375 C171.88656093 132.87130837 179.80972367 145.51480637 187.234375 158.76220703 C187.96551514 160.05964844 187.96551514 160.05964844 188.71142578 161.38330078 C209.12462173 197.939266 220.38600452 238.34500222 225.234375 279.76220703 C225.35296875 280.76541992 225.4715625 281.76863281 225.59375 282.80224609 C232.92694655 347.73159053 221.82189134 415.44135308 192.234375 473.76220703 C191.82396973 474.57608887 191.41356445 475.3899707 190.99072266 476.22851562 C178.20971656 501.21126392 161.19938026 524.28147737 142.58203125 545.20117188 C141.32930145 546.65225057 140.15300592 548.16836231 138.984375 549.68798828 C138.406875 550.37248047 137.829375 551.05697266 137.234375 551.76220703 C136.574375 551.76220703 135.914375 551.76220703 135.234375 551.76220703 C135.02039063 552.30232422 134.80640625 552.84244141 134.5859375 553.39892578 C132.7480462 556.61257965 130.2378472 559.01160365 127.609375 561.57470703 C127.06522949 562.11095703 126.52108398 562.64720703 125.96044922 563.19970703 C121.85200885 567.22171799 117.62064101 571.04542373 113.234375 574.76220703 C112.22028381 575.65030923 111.2073671 576.53975344 110.1953125 577.43017578 C49.09072421 630.93640322 -28.52246667 658.94758856 -109.578125 659.01220703 C-110.7384021 659.01321915 -110.7384021 659.01321915 -111.92211914 659.01425171 C-173.39551804 658.9303445 -234.53737225 643.89496486 -286.765625 610.76220703 C-287.39581543 610.36324219 -288.02600586 609.96427734 -288.67529297 609.55322266 C-306.51655982 598.15756648 -323.16323302 585.05268617 -338.765625 570.76220703 C-339.75745847 569.86337871 -340.74965999 568.9649564 -341.7421875 568.06689453 C-350.5727313 560.05606957 -359.03861088 551.85281188 -366.765625 542.76220703 C-367.57644531 541.82892578 -368.38726562 540.89564453 -369.22265625 539.93408203 C-388.10234053 518.08714816 -404.34468623 493.96874081 -416.75927734 467.87402344 C-417.43989054 466.44575945 -418.12793607 465.02101731 -418.82275391 463.59960938 C-456.9531844 385.33548823 -458.47106983 287.38189311 -430.515625 205.69970703 C-418.74931327 172.68745147 -401.75629868 142.04415202 -379.765625 114.76220703 C-379.03085937 113.83537109 -378.29609375 112.90853516 -377.5390625 111.95361328 C-372.3495913 105.48969598 -366.83347064 99.36509753 -361.19042969 93.30029297 C-359.74075181 91.73535626 -358.30237841 90.1607463 -356.8671875 88.58251953 C-349.52326239 80.50757584 -342.05075304 72.87529257 -333.765625 65.76220703 C-332.74556492 64.86697591 -331.72607692 63.97109269 -330.70703125 63.07470703 C-256.42378323 -1.91639765 -158.44629113 -27.01205348 0 0 Z " fill="#967821" transform="translate(780.765625,110.23779296875)"/>
<path d="M0 0 C1.47123246 0.50187803 2.9451679 0.99591193 4.421875 1.48144531 C27.54456573 9.11503004 49.84102673 20.52562394 70.234375 33.76220703 C71.42764404 34.53298584 71.42764404 34.53298584 72.64501953 35.31933594 C88.08307434 45.37525984 102.195291 56.80779191 115.65625 69.36767578 C117.91550182 71.46604148 120.21023788 73.50109379 122.546875 75.51220703 C130.20705282 82.17672233 130.20705282 82.17672233 133.234375 85.76220703 C133.234375 86.42220703 133.234375 87.08220703 133.234375 87.76220703 C133.894375 87.76220703 134.554375 87.76220703 135.234375 87.76220703 C136.64453125 89.16064453 136.64453125 89.16064453 138.296875 91.13720703 C140.98374605 94.3070487 143.72835972 97.39631548 146.546875 100.44970703 C151.2777149 105.70708223 155.61618295 111.22394561 159.83935547 116.89160156 C160.80003483 118.17979289 161.76549261 119.4644299 162.73486328 120.74609375 C171.88656093 132.87130837 179.80972367 145.51480637 187.234375 158.76220703 C187.96551514 160.05964844 187.96551514 160.05964844 188.71142578 161.38330078 C209.12462173 197.939266 220.38600452 238.34500222 225.234375 279.76220703 C225.35296875 280.76541992 225.4715625 281.76863281 225.59375 282.80224609 C232.92694655 347.73159053 221.82189134 415.44135308 192.234375 473.76220703 C191.82396973 474.57608887 191.41356445 475.3899707 190.99072266 476.22851562 C178.20971656 501.21126392 161.19938026 524.28147737 142.58203125 545.20117188 C141.32930145 546.65225057 140.15300592 548.16836231 138.984375 549.68798828 C138.406875 550.37248047 137.829375 551.05697266 137.234375 551.76220703 C136.574375 551.76220703 135.914375 551.76220703 135.234375 551.76220703 C135.02039063 552.30232422 134.80640625 552.84244141 134.5859375 553.39892578 C132.7480462 556.61257965 130.2378472 559.01160365 127.609375 561.57470703 C127.06522949 562.11095703 126.52108398 562.64720703 125.96044922 563.19970703 C121.85200885 567.22171799 117.62064101 571.04542373 113.234375 574.76220703 C112.22028381 575.65030923 111.2073671 576.53975344 110.1953125 577.43017578 C49.09072421 630.93640322 -28.52246667 658.94758856 -109.578125 659.01220703 C-110.7384021 659.01321915 -110.7384021 659.01321915 -111.92211914 659.01425171 C-173.39551804 658.9303445 -234.53737225 643.89496486 -286.765625 610.76220703 C-287.39581543 610.36324219 -288.02600586 609.96427734 -288.67529297 609.55322266 C-306.51655982 598.15756648 -323.16323302 585.05268617 -338.765625 570.76220703 C-339.75745847 569.86337871 -340.74965999 568.9649564 -341.7421875 568.06689453 C-350.5727313 560.05606957 -359.03861088 551.85281188 -366.765625 542.76220703 C-367.57644531 541.82892578 -368.38726562 540.89564453 -369.22265625 539.93408203 C-388.10234053 518.08714816 -404.34468623 493.96874081 -416.75927734 467.87402344 C-417.43989054 466.44575945 -418.12793607 465.02101731 -418.82275391 463.59960938 C-456.9531844 385.33548823 -458.47106983 287.38189311 -430.515625 205.69970703 C-418.74931327 172.68745147 -401.75629868 142.04415202 -379.765625 114.76220703 C-379.03085937 113.83537109 -378.29609375 112.90853516 -377.5390625 111.95361328 C-372.3495913 105.48969598 -366.83347064 99.36509753 -361.19042969 93.30029297 C-359.74075181 91.73535626 -358.30237841 90.1607463 -356.8671875 88.58251953 C-349.52326239 80.50757584 -342.05075304 72.87529257 -333.765625 65.76220703 C-332.74556492 64.86697591 -331.72607692 63.97109269 -330.70703125 63.07470703 C-256.42378323 -1.91639765 -158.44629113 -27.01205348 0 0 Z M-181.328125 16.63720703 C-184.38571573 17.63787309 -186.42419366 17.91346774 -189.57421875 18.06689453 C-196.78916624 18.67335284 -203.3987913 20.80883048 -210.265625 23.01220703 C-212.12767578 23.58648437 -212.12767578 23.58648437 -214.02734375 24.17236328 C-222.67186002 26.895978 -231.34738043 29.75780072 -238.890625 34.88720703 C-241.4015805 36.5247867 -243.01676078 37.2328249 -245.8125 38.06298828 C-251.13570925 39.78763505 -255.95713202 42.2054941 -260.890625 44.82470703 C-261.80062256 45.30423828 -262.71062012 45.78376953 -263.64819336 46.27783203 C-271.71575139 50.60057386 -279.32019242 55.44828977 -286.765625 60.76220703 C-287.55324219 61.23271484 -288.34085938 61.70322266 -289.15234375 62.18798828 C-291.03715248 63.70785858 -291.03715248 63.70785858 -291.15625 66.46142578 C-291.10984375 67.44755859 -291.0634375 68.43369141 -291.015625 69.44970703 C-290.97953125 70.44357422 -290.9434375 71.43744141 -290.90625 72.46142578 C-290.85984375 73.22068359 -290.8134375 73.97994141 -290.765625 74.76220703 C-291.425625 74.76220703 -292.085625 74.76220703 -292.765625 74.76220703 C-291.67777532 78.01203838 -291.67777532 78.01203838 -289.765625 80.76220703 C-289.00769172 88.15205647 -291.40766978 93.41703391 -294.265625 100.13720703 C-299.82386103 114.06048182 -301.81420107 128.45008336 -295.765625 142.76220703 C-293.08943716 147.3036167 -290.67367585 150.96473962 -285.71875 153.03564453 C-281.76058345 155.34981069 -281.07629867 158.15145713 -279.828125 162.32470703 C-276.4111707 172.45183305 -270.94390558 179.72535161 -263.7578125 187.58251953 C-261.17502417 190.40839382 -258.69554127 193.31877029 -256.2109375 196.23095703 C-254.82370471 197.87628153 -254.82370471 197.87628153 -252.765625 198.76220703 C-252.765625 197.11220703 -252.765625 195.46220703 -252.765625 193.76220703 C-253.425625 193.76220703 -254.085625 193.76220703 -254.765625 193.76220703 C-254.99507812 192.90498047 -255.22453125 192.04775391 -255.4609375 191.16455078 C-256.93725274 187.31463888 -259.05515929 184.47173891 -261.640625 181.32470703 C-270.89539357 169.94161631 -270.89539357 169.94161631 -271.765625 162.76220703 C-266.5698007 165.69318484 -263.13197223 169.53180638 -259.2421875 174.02001953 C-256.77298817 176.75405412 -254.15624046 179.19913048 -251.453125 181.69970703 C-246.59710689 186.46731025 -243.12101234 191.59158445 -239.578125 197.38720703 C-232.59762813 208.80459206 -227.17811039 216.95884558 -213.8203125 220.55517578 C-207.59360939 222.00512911 -201.3842005 222.96394459 -195.05053711 223.78393555 C-194.15214111 223.90051514 -193.25374512 224.01709473 -192.328125 224.13720703 C-191.42392822 224.25443115 -190.51973145 224.37165527 -189.58813477 224.49243164 C-182.75875281 225.4495682 -176.87536362 227.30585001 -170.40625 229.69970703 C-165.03734352 231.26659819 -159.89253634 231.37019383 -154.32421875 231.42626953 C-147.42051125 232.07799164 -144.68673998 234.84109205 -139.765625 239.76220703 C-157.255625 239.76220703 -174.745625 239.76220703 -192.765625 239.76220703 C-193.260625 298.66720703 -193.260625 298.66720703 -193.765625 358.76220703 C-211.255625 359.09220703 -228.745625 359.42220703 -246.765625 359.76220703 C-246.765625 319.83220703 -246.765625 279.90220703 -246.765625 238.76220703 C-268.215625 238.76220703 -289.665625 238.76220703 -311.765625 238.76220703 C-311.765625 256.91220703 -311.765625 275.06220703 -311.765625 293.76220703 C-315.67577334 289.85205869 -317.5630844 287.73262402 -320.015625 283.13720703 C-322.43711538 278.8352534 -325.00506542 275.08421597 -328.203125 271.32470703 C-332.32133421 266.47235187 -335.5918981 261.3772132 -338.84765625 255.91845703 C-341.60630695 251.378763 -344.64188674 247.05635862 -347.765625 242.76220703 C-348.16235916 242.06782532 -348.55909332 241.3734436 -348.96784973 240.65802002 C-350.66536937 238.48824333 -350.66536937 238.48824333 -353.59403992 238.28118896 C-355.31612419 238.29451263 -355.31612419 238.29451263 -357.07299805 238.30810547 C-358.37412033 238.30840759 -359.67524261 238.30870972 -361.01579285 238.309021 C-362.43631602 238.32944771 -363.85683296 238.3503117 -365.27734375 238.37158203 C-366.7303642 238.37904334 -368.18339472 238.38473679 -369.63642883 238.38873291 C-373.45895215 238.40399825 -377.28086653 238.44328683 -381.10314941 238.48754883 C-385.00422935 238.52848271 -388.90540778 238.54673984 -392.80664062 238.56689453 C-400.45991289 238.60978107 -408.11268359 238.67804219 -415.765625 238.76220703 C-416.88729725 242.42439418 -418.0063678 246.0873715 -419.125 249.75048828 C-419.44001465 250.77887817 -419.7550293 251.80726807 -420.07958984 252.86682129 C-427.29961121 276.52982864 -430.9888717 299.93865511 -431.015625 324.69970703 C-431.01696442 325.43610413 -431.01830383 326.17250122 -431.01968384 326.93121338 C-431.01559277 337.40181029 -430.57007769 347.71871006 -429.453125 358.13720703 C-429.33549805 359.2392749 -429.21787109 360.34134277 -429.09667969 361.47680664 C-428.22433933 368.75058576 -426.7028576 375.70242424 -424.765625 382.76220703 C-424.48017822 383.80892578 -424.19473145 384.85564453 -423.90063477 385.93408203 C-423.01328376 389.15106455 -422.11087343 392.36342497 -421.203125 395.57470703 C-420.89955078 396.65429688 -420.59597656 397.73388672 -420.28320312 398.84619141 C-418.78920219 404.15493982 -417.28569577 409.46086569 -415.765625 414.76220703 C-412.795625 414.76220703 -409.825625 414.76220703 -406.765625 414.76220703 C-406.65605469 415.42607422 -406.54648437 416.08994141 -406.43359375 416.77392578 C-406.19576172 418.0984375 -406.19576172 418.0984375 -405.953125 419.44970703 C-405.80230469 420.31982422 -405.65148437 421.18994141 -405.49609375 422.08642578 C-404.8917388 424.78251625 -404.8917388 424.78251625 -403.42578125 426.97314453 C-401.03044955 430.99730178 -399.61321592 435.30926444 -398.015625 439.69970703 C-393.73910973 451.17195846 -388.68397049 461.82487846 -382.23828125 472.25830078 C-380.00160216 476.06124852 -378.09772658 480.01746039 -376.15625 483.97705078 C-374.48537599 487.32349227 -372.6679314 490.54291927 -370.765625 493.76220703 C-370.105625 493.76220703 -369.445625 493.76220703 -368.765625 493.76220703 C-368.53617188 494.45443359 -368.30671875 495.14666016 -368.0703125 495.85986328 C-366.4857968 499.3846991 -364.2910575 502.20791434 -361.890625 505.19970703 C-359.36555117 508.38040092 -356.91893029 511.53110502 -354.671875 514.91845703 C-349.99965297 521.88849318 -344.61513219 526.22405438 -337.015625 529.67626953 C-334.26037835 531.00605871 -332.13466934 532.84136027 -329.765625 534.76220703 C-328.17746765 535.49011248 -326.58397515 536.20955243 -324.9609375 536.85595703 C-322.14014037 538.02041421 -319.39999246 539.3339877 -316.640625 540.63720703 C-311.25731046 543.13266149 -305.8249268 545.3354557 -300.26953125 547.41455078 C-297.01981612 548.66444122 -293.81836356 549.99258775 -290.61328125 551.35083008 C-278.17401896 556.59899533 -265.63405703 560.40423178 -252.515625 563.57470703 C-251.60973633 563.79400879 -250.70384766 564.01331055 -249.77050781 564.23925781 C-248.91811523 564.43890137 -248.06572266 564.63854492 -247.1875 564.84423828 C-246.43049805 565.02188721 -245.67349609 565.19953613 -244.89355469 565.38256836 C-242.46957628 565.87929654 -242.46957628 565.87929654 -238.765625 565.76220703 C-235.62983308 559.49062319 -237.36105851 550.00026402 -239.390625 543.57470703 C-240.14023522 541.62055072 -240.93166729 539.68188328 -241.765625 537.76220703 C-242.15492188 536.85986328 -242.54421875 535.95751953 -242.9453125 535.02783203 C-247.45330928 525.79844217 -254.73245885 518.85129725 -261.875 511.62939453 C-264.74973941 508.57669507 -265.73529093 507.08071479 -266.140625 502.82470703 C-265.955 501.30876953 -265.955 501.30876953 -265.765625 499.76220703 C-259.58580379 498.31846635 -259.58580379 498.31846635 -255.95703125 500.28173828 C-242.14949174 512.3248671 -227.33301513 530.35430838 -225.51538086 549.38183594 C-225.34798623 552.32109599 -225.23252024 555.25714486 -225.140625 558.19970703 C-225.10195313 559.21742188 -225.06328125 560.23513672 -225.0234375 561.28369141 C-224.92981628 563.77635639 -224.84408507 566.26902653 -224.765625 568.76220703 C-223.33605656 569.24042767 -221.90634027 569.71820635 -220.4765625 570.19580078 C-219.68040527 570.46191162 -218.88424805 570.72802246 -218.06396484 571.00219727 C-204.24649129 575.57132784 -190.26331865 576.97540841 -175.765625 576.76220703 C-175.105625 571.15220703 -174.445625 565.54220703 -173.765625 559.76220703 C-173.105625 559.76220703 -172.445625 559.76220703 -171.765625 559.76220703 C-171.48912109 558.3178125 -171.48912109 558.3178125 -171.20703125 556.84423828 C-169.11267616 546.48686037 -166.26859169 536.4094041 -163.140625 526.32470703 C-162.94099152 525.67579498 -162.74135803 525.02688293 -162.53567505 524.35830688 C-159.12079453 513.29496133 -159.12079453 513.29496133 -156.765625 509.76220703 C-153.04922361 509.49192329 -150.308424 509.58127403 -146.765625 510.76220703 C-148.17327802 519.47309513 -149.88521015 527.79263693 -153.66796875 535.80126953 C-156.16902542 541.36261822 -157.57167688 547.0888336 -158.953125 553.01220703 C-159.21432129 554.11234131 -159.47551758 555.21247559 -159.74462891 556.34594727 C-161.46476113 563.82879899 -162.73499701 571.05926734 -162.765625 578.76220703 C-158.64678015 579.53911115 -154.76572325 579.88457011 -150.57666016 579.87573242 C-148.77547226 579.87561913 -148.77547226 579.87561913 -146.93789673 579.87550354 C-145.01570816 579.86776161 -145.01570816 579.86776161 -143.0546875 579.85986328 C-141.71804864 579.85799598 -140.38140908 579.85657355 -139.04476929 579.85557556 C-135.54313231 579.85177498 -132.04153744 579.84196594 -128.53991699 579.83087158 C-124.96021087 579.82060435 -121.38049788 579.8160666 -117.80078125 579.81103516 C-110.78904531 579.80034126 -103.77733718 579.78329467 -96.765625 579.76220703 C-96.59977568 578.15702633 -96.43543203 576.55169002 -96.27172852 574.94628906 C-96.18004898 574.05233429 -96.08836945 573.15837952 -95.99391174 572.23733521 C-95.7592076 569.69262833 -95.66191406 567.19228547 -95.703125 564.63720703 C-95.7340625 562.71908203 -95.7340625 562.71908203 -95.765625 560.76220703 C-95.105625 560.76220703 -94.445625 560.76220703 -93.765625 560.76220703 C-93.45625 559.40095703 -93.45625 559.40095703 -93.140625 558.01220703 C-88.8520703 543.35474954 -79.08862413 530.77916938 -68.515625 520.07470703 C-67.93748047 519.48641113 -67.35933594 518.89811523 -66.76367188 518.29199219 C-62.86873169 514.4764265 -59.0449369 511.17349197 -53.4296875 510.46923828 C-50.59765625 510.61572266 -50.59765625 510.61572266 -47.765625 510.76220703 C-47.453125 513.94970703 -47.453125 513.94970703 -47.765625 517.76220703 C-50.65659496 521.01718598 -53.92159606 523.77012097 -57.21875 526.60400391 C-71.11715273 538.76510629 -82.59098726 555.03435669 -84.765625 573.76220703 C-84.77594806 575.42884173 -84.77718083 577.09558043 -84.765625 578.76220703 C-73.61349899 579.24162652 -62.95488499 577.95972624 -51.94213867 576.36352539 C-49.07439558 575.94916817 -46.20455869 575.55290292 -43.33398438 575.15869141 C-33.22718588 573.74288367 -23.51621231 572.08749067 -13.83911133 568.75415039 C-10.91711488 567.81109919 -8.04938798 567.09950955 -5.046875 566.46533203 C-3.95930908 566.23152832 -2.87174316 565.99772461 -1.7512207 565.75683594 C-0.60097412 565.5111084 0.54927246 565.26538086 1.734375 565.01220703 C14.02530892 562.34182794 26.14434213 559.22392275 38.234375 555.76220703 C38.234375 555.10220703 38.234375 554.44220703 38.234375 553.76220703 C39.224375 553.76220703 40.214375 553.76220703 41.234375 553.76220703 C41.234375 553.10220703 41.234375 552.44220703 41.234375 551.76220703 C42.46800781 551.68486328 43.70164062 551.60751953 44.97265625 551.52783203 C51.13539459 550.83893496 56.6508112 548.69311702 62.421875 546.51220703 C64.6366412 545.69298692 66.85148448 544.87397518 69.06640625 544.05517578 C70.12553223 543.65991699 71.1846582 543.2646582 72.27587891 542.85742188 C77.07875533 541.07943016 81.91824231 539.41009911 86.7578125 537.73486328 C89.42473324 536.78851539 89.42473324 536.78851539 92.234375 534.76220703 C92.234375 534.10220703 92.234375 533.44220703 92.234375 532.76220703 C92.90082031 532.66423828 93.56726563 532.56626953 94.25390625 532.46533203 C98.01280123 531.57856782 101.41266171 530.08650329 104.921875 528.51220703 C105.63230957 528.19719238 106.34274414 527.88217773 107.07470703 527.55761719 C111.76308414 525.46335462 116.40320291 523.297381 120.94921875 520.90673828 C123.234375 519.76220703 123.234375 519.76220703 125.67578125 518.83642578 C138.16072102 513.77601983 145.05308366 499.9229177 151.53100586 488.80444336 C154.8544284 483.13448498 154.8544284 483.13448498 157.36328125 480.67626953 C159.40287442 478.58983811 160.30925887 476.57862812 161.37207031 473.88574219 C163.22958477 469.31137617 165.47291308 464.89874461 167.609375 460.44970703 C168.07859375 459.46808594 168.5478125 458.48646484 169.03125 457.47509766 C171.24534748 452.85423951 173.491537 448.26341009 175.8515625 443.71533203 C178.4319872 438.57853657 180.24555917 433.29456938 181.984375 427.82470703 C182.28730469 426.89335938 182.59023438 425.96201172 182.90234375 425.00244141 C183.45763441 423.29338015 184.00980773 421.58330007 184.55761719 419.87182617 C185.10518128 418.16493535 185.66751499 416.46278707 186.234375 414.76220703 C188.874375 414.76220703 191.514375 414.76220703 194.234375 414.76220703 C201.81293171 397.6298315 202.88366521 382.36242797 202.90625 363.82470703 C202.91912588 361.32942407 202.93258404 358.83414404 202.94659424 356.33886719 C202.97041223 351.1379495 202.97796787 345.93729642 202.97558594 340.73632812 C202.97525881 335.40533768 203.00188956 330.07572755 203.05761719 324.74511719 C203.12426641 318.27612351 203.15181107 311.80816488 203.14914703 305.33883667 C203.15385982 302.8828239 203.1715117 300.42679987 203.2024765 297.97097778 C203.24169679 294.54340105 203.23017462 291.11953153 203.20605469 287.69189453 C203.22853271 286.68399368 203.25101074 285.67609283 203.27416992 284.63764954 C203.20115785 280.55254525 203.12459001 277.84794986 200.47629547 274.61798096 C198.46947425 272.85412568 196.41448824 271.30280675 194.234375 269.76220703 C191.9476033 267.53260463 189.71422906 265.26264174 187.50390625 262.95751953 C183.86662201 259.22585466 180.16222409 255.84007545 176.046875 252.63720703 C172.1691374 249.61328321 169.28219671 246.59375432 166.234375 242.76220703 C162.40465692 239.09009444 160.06422477 238.26398421 154.78666687 238.28118896 C153.48401382 238.27569031 152.18136078 238.27019165 150.8392334 238.26452637 C149.40282832 238.27868125 147.96642699 238.29322047 146.5300293 238.30810547 C145.01207001 238.30923419 143.49410853 238.3085996 141.97615051 238.30633545 C137.86068361 238.30518834 133.74568354 238.32869689 129.63032508 238.35663128 C125.32753351 238.38164554 121.02473111 238.38398695 116.72187805 238.38873291 C108.57626893 238.40116263 100.43087468 238.43398414 92.28536016 238.47413087 C83.01096494 238.51884873 73.73655942 238.54083565 64.46208322 238.56091261 C45.3860553 238.60271681 26.3102403 238.67387499 7.234375 238.76220703 C7.234375 247.67220703 7.234375 256.58220703 7.234375 265.76220703 C-8.935625 265.76220703 -25.105625 265.76220703 -41.765625 265.76220703 C-42.755625 262.13220703 -43.745625 258.50220703 -44.765625 254.76220703 C-45.73457115 251.84779868 -46.71946543 248.95981896 -47.765625 246.07470703 C-48.136875 245.0334668 -48.136875 245.0334668 -48.515625 243.97119141 C-50.21721352 239.21649222 -51.98375647 234.48734054 -53.765625 229.76220703 C-54.425625 229.76220703 -55.085625 229.76220703 -55.765625 229.76220703 C-55.889375 229.04033203 -56.013125 228.31845703 -56.140625 227.57470703 C-56.7599931 224.78755058 -57.69609985 222.40456328 -58.765625 219.76220703 C-59.45242442 217.43472009 -60.12323543 215.10234047 -60.765625 212.76220703 C-61.425625 212.76220703 -62.085625 212.76220703 -62.765625 212.76220703 C-63.06855469 213.69419922 -63.37148438 214.62619141 -63.68359375 215.58642578 C-66.14034851 223.08338812 -68.75625764 230.47467766 -71.640625 237.82080078 C-72.63827126 240.42923007 -73.53843466 243.04105072 -74.390625 245.69970703 C-75.21448295 248.26437218 -76.070549 250.34766111 -77.328125 252.76220703 C-79.30934264 256.60669516 -79.30934264 256.60669516 -80.765625 264.76220703 C-104.030625 265.25720703 -104.030625 265.25720703 -127.765625 265.76220703 C-127.435625 259.49220703 -127.105625 253.22220703 -126.765625 246.76220703 C-125.445625 247.42220703 -124.125625 248.08220703 -122.765625 248.76220703 C-117.76006322 249.31566752 -112.11776439 249.57003889 -107.765625 246.76220703 C-107.1209659 244.72594063 -107.1209659 244.72594063 -106.765625 242.76220703 C-107.62285156 242.77123047 -108.48007812 242.78025391 -109.36328125 242.78955078 C-119.86662458 242.51719802 -119.86662458 242.51719802 -124.015625 238.32470703 C-128.05473354 233.53576399 -128.03940774 229.6603509 -128.38671875 223.51220703 C-128.50281666 220.62236696 -128.50281666 220.62236696 -130.765625 218.76220703 C-137.81710833 217.82384917 -144.88773729 219.29771383 -151.765625 220.76220703 C-151.6934375 220.17955078 -151.62125 219.59689453 -151.546875 218.99658203 C-150.78090972 212.23055537 -150.66039642 205.56698852 -150.765625 198.76220703 C-158.29958523 198.25695874 -158.29958523 198.25695874 -164.765625 201.76220703 C-167.12663023 204.97297181 -167.12663023 204.97297181 -167.765625 208.76220703 C-168.879375 209.19533203 -168.879375 209.19533203 -170.015625 209.63720703 C-172.66907481 210.65004673 -172.66907481 210.65004673 -174.62890625 211.84033203 C-178.58523376 213.54726675 -182.6572737 212.67889128 -186.765625 211.76220703 C-190.03254761 209.80205347 -192.07492392 207.41966095 -194.453125 204.51220703 C-195.21625 203.60470703 -195.979375 202.69720703 -196.765625 201.76220703 C-197.425625 201.76220703 -198.085625 201.76220703 -198.765625 201.76220703 C-202.92543227 185.90294182 -202.92543227 185.90294182 -199.4921875 179.32080078 C-195.79140184 174.27509545 -195.79140184 174.27509545 -192.765625 172.76220703 C-192.765625 172.10220703 -192.765625 171.44220703 -192.765625 170.76220703 C-191.43229167 170.09554036 -190.09895833 169.4288737 -188.765625 168.76220703 C-187.94191406 168.23240234 -187.94191406 168.23240234 -187.1015625 167.69189453 C-183.79902704 166.37750751 -180.62967726 166.62852687 -177.140625 166.76220703 C-174.65526219 166.85634956 -172.25775039 166.85558878 -169.765625 166.76220703 C-169.105625 166.10220703 -168.445625 165.44220703 -167.765625 164.76220703 C-162.13872101 163.71747241 -156.46771485 163.2130572 -150.765625 162.76220703 C-149.81558594 162.67841797 -148.86554688 162.59462891 -147.88671875 162.50830078 C-145.4320389 162.51256979 -143.95875606 162.64705565 -141.765625 163.76220703 C-139.71629723 166.12414413 -138.10212151 168.57461851 -136.4609375 171.23486328 C-134.01948141 174.87454552 -131.57676815 176.63676181 -127.765625 178.76220703 C-126.775625 178.43220703 -125.785625 178.10220703 -124.765625 177.76220703 C-125.35312508 173.30922343 -126.49880519 169.57399861 -128.265625 165.44970703 C-128.7090625 164.40169922 -129.1525 163.35369141 -129.609375 162.27392578 C-130.53831943 159.87396893 -130.53831943 159.87396893 -131.765625 158.76220703 C-132.56024953 151.96230528 -131.79905499 147.25646262 -127.765625 141.76220703 C-127.3221875 141.14216797 -126.87875 140.52212891 -126.421875 139.88330078 C-125.9784375 139.26583984 -125.535 138.64837891 -125.078125 138.01220703 C-122.12454248 133.86122619 -121.70859558 131.31129233 -121.62768555 126.31616211 C-121.40094931 116.63351948 -118.91018536 110.78591656 -112.703125 103.26220703 C-109.72548839 99.42009528 -105.765625 93.75753144 -105.765625 88.76220703 C-105.19328125 88.49666016 -104.6209375 88.23111328 -104.03125 87.95751953 C-101.6580238 86.70543812 -99.64349214 85.26857184 -97.515625 83.63720703 C-96.45601562 82.82896484 -96.45601562 82.82896484 -95.375 82.00439453 C-94.84390625 81.59447266 -94.3128125 81.18455078 -93.765625 80.76220703 C-95.08706608 77.97112587 -96.56944861 75.50434314 -98.390625 73.01220703 C-98.83664062 72.39861328 -99.28265625 71.78501953 -99.7421875 71.15283203 C-100.07992188 70.69392578 -100.41765625 70.23501953 -100.765625 69.76220703 C-104.16859837 70.5833593 -107.45166723 71.6324487 -110.765625 72.76220703 C-108.63062134 67.31263969 -103.79153895 65.26379316 -98.765625 62.76220703 C-97.569375 62.51470703 -96.373125 62.26720703 -95.140625 62.01220703 C-89.75509286 60.0175655 -86.72327402 55.57379702 -83.765625 50.76220703 C-83.00860722 48.06626777 -83.00860722 48.06626777 -82.765625 45.76220703 C-83.961875 45.32908203 -85.158125 44.89595703 -86.390625 44.44970703 C-89.98184052 43.10536801 -93.34859094 41.50707549 -96.765625 39.76220703 C-97.83167969 39.34197266 -98.89773438 38.92173828 -99.99609375 38.48876953 C-104.09115449 36.74857038 -107.47272324 34.29821766 -111.015625 31.63720703 C-115.57916605 28.15191608 -115.57916605 28.15191608 -120.765625 25.76220703 C-121.425625 28.40220703 -122.085625 31.04220703 -122.765625 33.76220703 C-128.54397077 31.35456296 -134.25878452 28.79060356 -139.68359375 25.65283203 C-142.21701859 24.56911559 -144.14443293 24.5296203 -146.890625 24.57470703 C-147.75945312 24.58115234 -148.62828125 24.58759766 -149.5234375 24.59423828 C-151.8020795 24.62245633 -151.8020795 24.62245633 -153.765625 25.76220703 C-153.765625 27.41220703 -153.765625 29.06220703 -153.765625 30.76220703 C-153.105625 30.76220703 -152.445625 30.76220703 -151.765625 30.76220703 C-151.56066406 31.44927734 -151.35570312 32.13634766 -151.14453125 32.84423828 C-150.87511719 33.74529297 -150.60570312 34.64634766 -150.328125 35.57470703 C-149.92787109 36.9146875 -149.92787109 36.9146875 -149.51953125 38.28173828 C-148.96174627 40.11693758 -148.37217925 41.94254429 -147.765625 43.76220703 C-147.61622726 45.67986297 -147.51752217 47.60167225 -147.44921875 49.52392578 C-147.40732422 50.6421875 -147.36542969 51.76044922 -147.32226562 52.91259766 C-147.28294922 54.07984375 -147.24363281 55.24708984 -147.203125 56.44970703 C-147.15994141 57.62855469 -147.11675781 58.80740234 -147.07226562 60.02197266 C-146.96611324 62.93526586 -146.86406258 65.8486446 -146.765625 68.76220703 C-151.89536874 67.24738338 -153.14407083 66.37614237 -155.765625 61.76220703 C-161.28645435 55.41481283 -167.20474987 54.28247296 -175.3125 53.52392578 C-182.00500623 52.66138228 -185.42605919 49.98530075 -190.1484375 45.24658203 C-192.25578732 42.00920405 -192.48929229 40.56500769 -191.765625 36.76220703 C-190.14272769 34.17005861 -188.15792971 31.99561982 -186.078125 29.76220703 C-185.01142612 28.57496988 -183.9450171 27.38747224 -182.87890625 26.19970703 C-182.35893066 25.62994141 -181.83895508 25.06017578 -181.30322266 24.47314453 C-179.04790769 21.96357843 -176.90745591 19.36896227 -174.765625 16.76220703 C-177.42075395 15.74100359 -178.59498787 15.70394069 -181.328125 16.63720703 Z " fill="#0E0D0B" transform="translate(780.765625,110.23779296875)"/>
<path d="M0 0 C195.36 0 390.72 0 592 0 C588.4470091 15.98845906 582.74900822 30.60535523 575 45 C574.26149414 46.38269256 573.52321557 47.76550653 572.78515625 49.1484375 C571.73461723 51.11682327 570.68177104 53.0833992 569.61352539 55.04223633 C568.25129822 57.55407253 566.99408432 60.01533613 565.96484375 62.68359375 C564.92325578 65.18424827 563.68670974 66.81564669 561.9375 68.875 C558.73953406 72.8476285 556.16985554 76.97496964 553.625 81.375 C547.4648515 91.91901732 541.44795272 100.38795047 529.8515625 105.19921875 C528.05504027 105.97619566 526.30681043 106.86198742 524.5625 107.75 C520.37422854 109.86886962 516.10273348 111.78632821 511.8125 113.6875 C511.12293213 113.99719727 510.43336426 114.30689453 509.72290039 114.62597656 C506.17354282 116.1855102 502.84492572 117.44005936 499 118 C499 118.66 499 119.32 499 120 C488.72500266 124.46739015 478.28392898 128.43560888 467.75 132.25 C466.81752441 132.59514648 466.81752441 132.59514648 465.86621094 132.94726562 C464.03400173 133.62515439 462.19672886 134.28930683 460.359375 134.953125 C459.28139648 135.34661133 458.20341797 135.74009766 457.09277344 136.14550781 C453.91481857 137.0235345 451.27955265 137.16120878 448 137 C448 137.66 448 138.32 448 139 C447.01 139 446.02 139 445 139 C445 139.66 445 140.32 445 141 C440.50326075 142.24122957 436.00309929 143.46956414 431.5 144.6875 C430.49057343 144.96052948 430.49057343 144.96052948 429.46075439 145.23907471 C419.16222536 148.01150819 408.84432308 150.44329896 398.36523438 152.4519043 C397.44806641 152.63019775 396.53089844 152.80849121 395.5859375 152.9921875 C394.7923584 153.14026855 393.9987793 153.28834961 393.18115234 153.44091797 C390.99244224 153.9144525 390.99244224 153.9144525 389.12719727 154.97192383 C379.66815393 159.54348718 366.61144382 159.92233971 356.2565918 161.36254883 C353.93445933 161.68792606 351.61482881 162.02830122 349.29492188 162.36914062 C340.11488675 163.67786389 331.29122335 164.31060911 322 164 C322.62438866 144.37692998 332.63402857 127.90862236 346.62109375 114.484375 C349.61763592 111.79505632 352.62245772 109.12427217 355.7421875 106.578125 C358.61062401 104.08242317 358.99238187 103.09294119 359.3125 99.1875 C359.209375 98.135625 359.10625 97.08375 359 96 C357.824375 95.9175 356.64875 95.835 355.4375 95.75 C354.77621094 95.70359375 354.11492187 95.6571875 353.43359375 95.609375 C346.62720251 96.70189366 341.50895378 101.87908503 336.8125 106.5625 C336.16829102 107.20437256 335.52408203 107.84624512 334.86035156 108.50756836 C325.65914141 118.05002596 314.603924 132.52703836 313 146 C312.34 146 311.68 146 311 146 C311.0309375 147.918125 311.0309375 147.918125 311.0625 149.875 C311.11853395 153.34910519 310.84794874 156.73176628 310.49389648 160.18408203 C310.40196518 161.08563019 310.31003387 161.98717834 310.21531677 162.91604614 C310.14426224 163.60375092 310.0732077 164.29145569 310 165 C302.28060357 165.02321599 294.56121078 165.04096219 286.84178734 165.05181217 C283.25697975 165.05702078 279.67219614 165.06408157 276.08740234 165.07543945 C272.6249938 165.08634037 269.16260825 165.09229206 265.70018387 165.09487724 C263.74269095 165.09761189 261.78520722 165.10541244 259.82772827 165.11329651 C258.02654037 165.11340981 258.02654037 165.11340981 256.18896484 165.11352539 C255.13639496 165.115746 254.08382507 165.11796661 252.99935913 165.12025452 C249.92535308 164.99700715 247.02053202 164.56973832 244 164 C244.41116312 154.58348147 245.95022191 145.86235153 248.3125 136.75 C248.60833984 135.54859375 248.90417969 134.3471875 249.20898438 133.109375 C250.7382145 127.08493493 252.46339552 121.45425553 255.13208008 115.83740234 C258.09736351 109.55984309 259.36456812 102.86266434 260 96 C256.52674819 94.8422494 253.63932552 94.93133348 250 95 C246.5989397 102.09718975 244.19128289 109.35915513 241.96289062 116.89208984 C241.37735976 118.86704071 240.77920214 120.83784883 240.1796875 122.80859375 C237.97488137 130.14300514 236.14684517 137.42213667 235 145 C234.34 145 233.68 145 233 145 C232.34 150.61 231.68 156.22 231 162 C219.14298217 162.37641326 198.98512308 162.65674872 189 156 C186.67891331 155.29187186 184.34622853 154.61975848 182 154 C181.9906543 153.39639648 181.98130859 152.79279297 181.97167969 152.17089844 C181.57674106 131.85866285 177.7055048 118.87162144 166 102 C165.44183594 101.18789063 164.88367188 100.37578125 164.30859375 99.5390625 C159.92382829 93.51661355 154.58073851 87.59771144 148 84 C144.24208859 84.14700512 144.24208859 84.14700512 141 85 C140.59840709 88.25414464 140.29303478 90.88446195 142.10595703 93.74511719 C143.69166975 95.53585659 145.34500011 97.21028877 147.0625 98.875 C148.26520677 100.10854957 149.465743 101.34421927 150.6640625 102.58203125 C151.24317383 103.17193848 151.82228516 103.7618457 152.41894531 104.36962891 C163.74107812 116.04492274 169.25377931 129.83873401 169.16796875 145.98828125 C169 149 169 149 168 151 C154.8555374 149.58841221 141.90922895 146.14340162 129.375 142 C128.69066895 141.77546143 128.00633789 141.55092285 127.30126953 141.31958008 C122.36186319 139.62771744 117.6675685 137.51968378 112.93115234 135.32910156 C106.84156519 132.56783949 100.62462759 130.09761443 94.43359375 127.57421875 C93.41652344 127.15527344 92.39945312 126.73632812 91.3515625 126.3046875 C90.44229004 125.93327637 89.53301758 125.56186523 88.59619141 125.17919922 C85.92546198 123.96614457 83.50516597 122.52086452 81 121 C79.9275 120.566875 78.855 120.13375 77.75 119.6875 C73.8475861 118.07711522 70.52094523 115.79230614 67.05859375 113.3984375 C64.96456047 111.92375911 64.96456047 111.92375911 62.4375 110.625 C55.51011592 106.00674395 50.99725031 99.7972943 46.7421875 92.7578125 C44.50443629 89.21554265 41.9445534 86.00953413 39.28515625 82.77734375 C38 81 38 81 38 79 C37.34 79 36.68 79 36 79 C33.21526077 73.9437872 30.45365373 68.87801688 27.7734375 63.765625 C27.38728271 63.03013428 27.00112793 62.29464355 26.60327148 61.53686523 C25.84490585 60.08985596 25.08907067 58.64151672 24.33618164 57.19165039 C22.54093388 53.76881856 20.68250608 50.48540249 18.54296875 47.265625 C15.19977974 42.00134494 13.10963846 36.23594261 10.875 30.4375 C10.01891085 28.2484312 9.16215784 26.05962189 8.3046875 23.87109375 C7.70732788 22.3389624 7.70732788 22.3389624 7.09790039 20.77587891 C5.79675639 17.48612858 4.41188123 14.24351093 3 11 C0 3.64197531 0 3.64197531 0 0 Z " fill="#FBFAF8" transform="translate(374,525)"/>
<path d="M0 0 C1.47123246 0.50187803 2.9451679 0.99591193 4.421875 1.48144531 C27.54456573 9.11503004 49.84102673 20.52562394 70.234375 33.76220703 C71.42764404 34.53298584 71.42764404 34.53298584 72.64501953 35.31933594 C88.08307434 45.37525984 102.195291 56.80779191 115.65625 69.36767578 C117.91550182 71.46604148 120.21023788 73.50109379 122.546875 75.51220703 C130.20705282 82.17672233 130.20705282 82.17672233 133.234375 85.76220703 C133.234375 86.42220703 133.234375 87.08220703 133.234375 87.76220703 C133.894375 87.76220703 134.554375 87.76220703 135.234375 87.76220703 C136.64453125 89.16064453 136.64453125 89.16064453 138.296875 91.13720703 C140.98374605 94.3070487 143.72835972 97.39631548 146.546875 100.44970703 C151.2777149 105.70708223 155.61618295 111.22394561 159.83935547 116.89160156 C160.80003483 118.17979289 161.76549261 119.4644299 162.73486328 120.74609375 C171.88656093 132.87130837 179.80972367 145.51480637 187.234375 158.76220703 C187.96551514 160.05964844 187.96551514 160.05964844 188.71142578 161.38330078 C209.12462173 197.939266 220.38600452 238.34500222 225.234375 279.76220703 C225.35296875 280.76541992 225.4715625 281.76863281 225.59375 282.80224609 C232.92694655 347.73159053 221.82189134 415.44135308 192.234375 473.76220703 C191.82396973 474.57608887 191.41356445 475.3899707 190.99072266 476.22851562 C178.20971656 501.21126392 161.19938026 524.28147737 142.58203125 545.20117188 C141.32930145 546.65225057 140.15300592 548.16836231 138.984375 549.68798828 C138.406875 550.37248047 137.829375 551.05697266 137.234375 551.76220703 C136.574375 551.76220703 135.914375 551.76220703 135.234375 551.76220703 C135.02039063 552.30232422 134.80640625 552.84244141 134.5859375 553.39892578 C132.7480462 556.61257965 130.2378472 559.01160365 127.609375 561.57470703 C127.06522949 562.11095703 126.52108398 562.64720703 125.96044922 563.19970703 C121.85200885 567.22171799 117.62064101 571.04542373 113.234375 574.76220703 C112.22028381 575.65030923 111.2073671 576.53975344 110.1953125 577.43017578 C49.09072421 630.93640322 -28.52246667 658.94758856 -109.578125 659.01220703 C-110.7384021 659.01321915 -110.7384021 659.01321915 -111.92211914 659.01425171 C-173.39551804 658.9303445 -234.53737225 643.89496486 -286.765625 610.76220703 C-287.39581543 610.36324219 -288.02600586 609.96427734 -288.67529297 609.55322266 C-306.51655982 598.15756648 -323.16323302 585.05268617 -338.765625 570.76220703 C-339.75745847 569.86337871 -340.74965999 568.9649564 -341.7421875 568.06689453 C-350.5727313 560.05606957 -359.03861088 551.85281188 -366.765625 542.76220703 C-367.57644531 541.82892578 -368.38726562 540.89564453 -369.22265625 539.93408203 C-388.10234053 518.08714816 -404.34468623 493.96874081 -416.75927734 467.87402344 C-417.43989054 466.44575945 -418.12793607 465.02101731 -418.82275391 463.59960938 C-456.9531844 385.33548823 -458.47106983 287.38189311 -430.515625 205.69970703 C-418.74931327 172.68745147 -401.75629868 142.04415202 -379.765625 114.76220703 C-379.03085937 113.83537109 -378.29609375 112.90853516 -377.5390625 111.95361328 C-372.3495913 105.48969598 -366.83347064 99.36509753 -361.19042969 93.30029297 C-359.74075181 91.73535626 -358.30237841 90.1607463 -356.8671875 88.58251953 C-349.52326239 80.50757584 -342.05075304 72.87529257 -333.765625 65.76220703 C-332.74556492 64.86697591 -331.72607692 63.97109269 -330.70703125 63.07470703 C-256.42378323 -1.91639765 -158.44629113 -27.01205348 0 0 Z M-169.29785156 2.13525391 C-172.75386098 2.76008016 -176.21385478 3.29998898 -179.6875 3.81689453 C-193.59859773 5.92650358 -206.62715174 9.82113056 -219.765625 14.76220703 C-220.44246338 15.01260742 -221.11930176 15.26300781 -221.81665039 15.52099609 C-225.94504204 17.05261514 -230.02153897 18.67197091 -234.078125 20.38720703 C-236.96401445 21.60659694 -239.79303308 22.77134306 -242.765625 23.76220703 C-242.765625 24.42220703 -242.765625 25.08220703 -242.765625 25.76220703 C-248.210625 27.24720703 -248.210625 27.24720703 -253.765625 28.76220703 C-253.765625 29.42220703 -253.765625 30.08220703 -253.765625 30.76220703 C-254.838125 31.05095703 -255.910625 31.33970703 -257.015625 31.63720703 C-259.86377711 32.49165266 -262.25335142 33.21619252 -264.765625 34.76220703 C-265.095625 35.42220703 -265.425625 36.08220703 -265.765625 36.76220703 C-267.59375 37.55126953 -267.59375 37.55126953 -270.015625 38.38720703 C-276.72897964 40.95579489 -282.94493532 44.54722485 -288.765625 48.76220703 C-288.765625 49.42220703 -288.765625 50.08220703 -288.765625 50.76220703 C-289.35190674 50.87612793 -289.93818848 50.99004883 -290.54223633 51.10742188 C-292.94572503 51.81524626 -294.35798579 52.72264415 -296.33984375 54.23876953 C-297.33443604 54.9923877 -297.33443604 54.9923877 -298.34912109 55.76123047 C-299.04344238 56.29780273 -299.73776367 56.834375 -300.453125 57.38720703 C-301.17064941 57.9340918 -301.88817383 58.48097656 -302.62744141 59.04443359 C-304.67859155 60.61053013 -306.72303526 62.18497068 -308.765625 63.76220703 C-309.65636719 64.44541016 -310.54710937 65.12861328 -311.46484375 65.83251953 C-313.57601659 67.4623298 -315.67129673 69.11083502 -317.765625 70.76220703 C-318.67699219 71.46474609 -319.58835937 72.16728516 -320.52734375 72.89111328 C-321.45160156 73.61169922 -322.37585938 74.33228516 -323.328125 75.07470703 C-324.17503906 75.73083984 -325.02195312 76.38697266 -325.89453125 77.06298828 C-326.82072266 77.90410156 -326.82072266 77.90410156 -327.765625 78.76220703 C-327.765625 79.42220703 -327.765625 80.08220703 -327.765625 80.76220703 C-328.32628662 80.99907227 -328.88694824 81.2359375 -329.46459961 81.47998047 C-334.48599856 84.27811175 -338.30101342 88.95787909 -342.328125 93.01220703 C-343.0713652 93.75618744 -343.0713652 93.75618744 -343.82962036 94.51519775 C-350.59819896 101.30450644 -356.96216734 108.22917218 -362.6640625 115.94970703 C-364.44816356 118.33735157 -366.28648648 120.47437536 -368.328125 122.63720703 C-374.39277247 129.37733582 -378.87226763 137.72692248 -383.375 145.56298828 C-384.765625 147.76220703 -384.765625 147.76220703 -386.18334961 149.10473633 C-388.06449259 151.07527787 -389.18410245 153.08102269 -390.47265625 155.48095703 C-391.2296582 156.88087891 -391.2296582 156.88087891 -392.00195312 158.30908203 C-392.52208984 159.28361328 -393.04222656 160.25814453 -393.578125 161.26220703 C-394.60546875 163.16845703 -395.6328125 165.07470703 -396.66015625 166.98095703 C-397.17271973 167.93873047 -397.6852832 168.89650391 -398.21337891 169.88330078 C-399.23488272 171.77785458 -400.26813743 173.66612721 -401.31396484 175.54736328 C-406.9796066 185.74370544 -411.43588089 196.14773863 -415.328125 207.13720703 C-415.72016113 208.23484375 -416.11219727 209.33248047 -416.51611328 210.46337891 C-418.80193025 216.906878 -421.0023968 223.3531405 -422.9140625 229.91845703 C-423.62103444 232.27935414 -424.40032708 234.5846573 -425.2109375 236.91064453 C-426.96731246 242.1569028 -428.15250307 247.47253672 -429.265625 252.88720703 C-429.47993164 253.9269165 -429.69423828 254.96662598 -429.91503906 256.0378418 C-431.35390042 263.22943578 -432.55202279 270.42945187 -433.515625 277.69970703 C-433.63099609 278.56031738 -433.74636719 279.42092773 -433.86523438 280.30761719 C-438.48913311 317.71215561 -442.08850398 374.11644907 -424.765625 408.76220703 C-424.105625 408.76220703 -423.445625 408.76220703 -422.765625 408.76220703 C-422.60126953 409.79667969 -422.60126953 409.79667969 -422.43359375 410.85205078 C-422.27503906 411.79177734 -422.11648438 412.73150391 -421.953125 413.69970703 C-421.80230469 414.61623047 -421.65148437 415.53275391 -421.49609375 416.47705078 C-420.73964858 419.87903148 -419.70581645 423.07267286 -418.57495117 426.36450195 C-417.76667073 428.75910894 -417.02484926 431.16513258 -416.30078125 433.58642578 C-415.93629883 434.7881543 -415.93629883 434.7881543 -415.56445312 436.01416016 C-415.07064436 437.64752762 -414.58373734 439.2829965 -414.10351562 440.92041016 C-412.60119285 445.8237697 -410.74536644 449.5323093 -407.765625 453.76220703 C-406.71875 456.31689453 -406.71875 456.31689453 -406.015625 458.63720703 C-405.77328125 459.41837891 -405.5309375 460.19955078 -405.28125 461.00439453 C-405.11109375 461.58447266 -404.9409375 462.16455078 -404.765625 462.76220703 C-404.105625 462.76220703 -403.445625 462.76220703 -402.765625 462.76220703 C-402.6109375 463.84501953 -402.6109375 463.84501953 -402.453125 464.94970703 C-401.69437843 468.05367028 -400.44296 470.05266588 -398.765625 472.76220703 C-398.32347656 473.81794922 -397.88132812 474.87369141 -397.42578125 475.96142578 C-395.77088453 479.89000669 -393.728716 483.52464647 -391.578125 487.19970703 C-391.21009766 487.83585937 -390.84207031 488.47201172 -390.46289062 489.12744141 C-389.56729004 490.67438788 -388.6669582 492.21859365 -387.765625 493.76220703 C-387.105625 493.76220703 -386.445625 493.76220703 -385.765625 493.76220703 C-385.54519531 494.41447266 -385.32476562 495.06673828 -385.09765625 495.73876953 C-383.29653038 499.82695553 -380.90488968 503.41234807 -378.453125 507.13720703 C-377.97939453 507.86681641 -377.50566406 508.59642578 -377.01757812 509.34814453 C-371.70495974 517.69464491 -371.70495974 517.69464491 -365.328125 525.19970703 C-362.68123347 527.84659856 -360.58829964 530.62218233 -358.3828125 533.63330078 C-355.13228208 537.91238069 -351.56502248 541.96280955 -347.765625 545.76220703 C-346.775625 545.76220703 -345.785625 545.76220703 -344.765625 545.76220703 C-344.36150391 546.64005859 -344.36150391 546.64005859 -343.94921875 547.53564453 C-339.61952607 555.68061096 -331.55692349 561.76059441 -324.765625 567.76220703 C-324.085 568.38095703 -323.404375 568.99970703 -322.703125 569.63720703 C-317.93669157 573.92699711 -312.87177177 577.75001112 -307.71875 581.56298828 C-305.13685462 583.48574899 -302.60149021 585.45130766 -300.078125 587.44970703 C-291.13169354 594.40980824 -281.39433769 599.9869773 -271.61767578 605.6796875 C-268.51239473 607.49471732 -265.43166019 609.34155323 -262.390625 611.26220703 C-259.90548696 612.68228591 -257.38759108 613.7968458 -254.75488281 614.91015625 C-252.72637461 615.77901899 -250.71598112 616.68112251 -248.70703125 617.59423828 C-239.50228891 621.76487518 -230.2609216 625.57079716 -220.75854492 629.01025391 C-218.47444212 629.8720739 -216.22763953 630.81131302 -213.97265625 631.74658203 C-208.72983919 633.85325753 -203.42423303 635.37125538 -197.953125 636.76220703 C-196.95539063 637.01784424 -195.95765625 637.27348145 -194.9296875 637.53686523 C-179.8066413 641.33555075 -164.61473665 643.94522528 -149.13867188 645.81176758 C-148.21892578 645.92302979 -147.29917969 646.03429199 -146.3515625 646.14892578 C-145.5373584 646.24391357 -144.7231543 646.33890137 -143.88427734 646.43676758 C-141.765625 646.76220703 -141.765625 646.76220703 -138.765625 647.76220703 C-137.25282398 647.86847695 -135.73589913 647.92075351 -134.21948242 647.93920898 C-133.29441895 647.95186295 -132.36935547 647.96451691 -131.41625977 647.97755432 C-130.41135498 647.98512253 -129.4064502 647.99269073 -128.37109375 648.00048828 C-127.32405273 648.0101915 -126.27701172 648.01989471 -125.19824219 648.02989197 C-121.78316459 648.05497967 -118.3682858 648.06744649 -114.953125 648.07470703 C-113.79414703 648.07732544 -112.63516907 648.07994385 -111.44107056 648.0826416 C-93.16400238 648.08707851 -75.77021807 647.03499122 -57.765625 643.76220703 C-55.75834017 643.43215876 -53.75053609 643.10525059 -51.7421875 642.78173828 C-40.56508578 640.92773014 -29.6583348 638.36634516 -18.75292969 635.30859375 C-17.006907 634.82854476 -15.25016084 634.38786207 -13.4921875 633.95361328 C-9.12002135 632.86975697 -5.24433185 631.60238178 -1.2578125 629.48876953 C4.68705636 626.45604399 10.83008086 624.05013485 17.046875 621.63720703 C19.24249313 620.78456466 21.43656751 619.92793392 23.62890625 619.06689453 C24.58643799 618.6954834 25.54396973 618.32407227 26.53051758 617.94140625 C29.26290449 616.74976483 31.70041811 615.32559851 34.234375 613.76220703 C35.94803358 613.01713808 37.67759959 612.30747322 39.421875 611.63720703 C42.87581614 610.30723085 42.87581614 610.30723085 46.234375 608.76220703 C46.234375 608.10220703 46.234375 607.44220703 46.234375 606.76220703 C46.93820312 606.49279297 47.64203125 606.22337891 48.3671875 605.94580078 C59.15590424 601.49214796 68.28145024 595.0652257 77.5078125 588.05957031 C79.92347443 586.24440805 82.39321212 584.50787756 84.859375 582.76220703 C91.2741338 578.10126044 97.25522829 572.9615498 103.234375 567.76220703 C104.44673828 566.72 104.44673828 566.72 105.68359375 565.65673828 C111.37436496 560.66161313 116.74523661 555.35259028 122.109375 550.01220703 C123.21684082 548.91175049 123.21684082 548.91175049 124.34667969 547.7890625 C127.87320553 544.25202661 131.15956726 540.70568243 134.234375 536.76220703 C135.56246936 535.42365523 136.89586373 534.09034224 138.234375 532.76220703 C143.6854365 526.53242246 148.55361688 520.04193851 153.01953125 513.07470703 C154.94239728 510.19888623 156.95125733 507.44261516 159.015625 504.66845703 C163.32946668 498.76304768 167.04844248 492.60916883 170.671875 486.26220703 C171.32075684 485.13016846 171.96963867 483.99812988 172.63818359 482.83178711 C179.83864308 470.13095171 186.2610151 457.19112113 191.1640625 443.42626953 C192.234375 440.76220703 192.234375 440.76220703 193.7734375 438.20751953 C195.21674823 435.79171066 195.99256263 433.71452352 196.734375 431.01220703 C197.61482253 427.84678852 198.57816252 424.73602899 199.64453125 421.62939453 C201.4118475 416.36124392 202.8217886 411.02557354 204.171875 405.63720703 C204.5599231 404.09504517 204.5599231 404.09504517 204.95581055 402.52172852 C207.04126441 394.0122221 208.64540009 385.45995219 210.02905273 376.81054688 C210.17544189 375.89869629 210.32183105 374.9868457 210.47265625 374.04736328 C210.59680908 373.24177979 210.72096191 372.43619629 210.84887695 371.60620117 C211.234375 369.76220703 211.234375 369.76220703 212.234375 368.76220703 C215.09248322 353.87347916 215.72396331 339.19750733 215.609375 324.07470703 C215.60605164 323.03091888 215.60272827 321.98713074 215.5993042 320.91171265 C216.35933118 295.692279 216.35933118 295.692279 211.25512695 271.36157227 C210.11962473 268.46999317 209.57634819 265.74475041 209.05078125 262.68408203 C208.84517578 261.52263672 208.63957031 260.36119141 208.42773438 259.16455078 C208.00989525 256.74548217 207.59321304 254.32621342 207.17773438 251.90673828 C206.13143122 246.00702269 204.96086519 240.38446173 202.93286133 234.74267578 C201.85157291 231.67682062 201.09291224 228.53719131 200.296875 225.38720703 C197.44891159 214.07933449 197.44891159 214.07933449 192.234375 203.76220703 C191.945625 202.71033203 191.656875 201.65845703 191.359375 200.57470703 C190.31351635 197.03040826 188.99907818 194.17246072 187.30078125 190.92626953 C186.15477599 188.60067645 185.2226466 186.24595583 184.296875 183.82470703 C182.65420727 179.60809537 180.6539196 175.77232682 178.390625 171.85986328 C177.33220585 169.9396907 176.48054172 168.0470586 175.671875 166.01220703 C174.41114841 162.78306824 174.41114841 162.78306824 172.421875 160.51220703 C170.39004267 157.95790353 169.00234924 155.5752192 167.484375 152.69970703 C163.19077319 144.64647927 158.26470024 136.64328355 152.234375 129.76220703 C151.574375 129.76220703 150.914375 129.76220703 150.234375 129.76220703 C150.13640625 129.18986328 150.0384375 128.61751953 149.9375 128.02783203 C149.08868627 125.29276556 147.80674942 123.71490307 145.984375 121.51220703 C143.66568348 118.64323781 141.62272603 115.8402358 139.796875 112.63720703 C138.07948861 109.80746454 136.33768835 107.83304264 133.78515625 105.73486328 C130.28841112 102.74843246 127.00091875 99.60096816 123.7734375 96.32861328 C123.05355904 95.60031311 123.05355904 95.60031311 122.31913757 94.8572998 C120.33383906 92.84496012 118.35243526 90.82888468 116.37597656 88.80786133 C110.00607298 82.3042866 103.47956458 76.30020576 96.234375 70.76220703 C94.99117786 69.77291763 93.7500708 68.78099213 92.51171875 67.78564453 C86.88406235 63.31250516 81.28538073 58.92313936 75.19921875 55.07861328 C73.234375 53.76220703 73.234375 53.76220703 71.03125 51.93017578 C67.39086976 49.10837266 63.52034045 46.83090443 59.546875 44.51220703 C58.77537109 44.05330078 58.00386719 43.59439453 57.20898438 43.12158203 C56.47099609 42.68845703 55.73300781 42.25533203 54.97265625 41.80908203 C53.96779175 41.21885254 53.96779175 41.21885254 52.94262695 40.61669922 C51.25459943 39.61308471 51.25459943 39.61308471 49.234375 39.76220703 C49.234375 39.10220703 49.234375 38.44220703 49.234375 37.76220703 C43.12515592 34.27786155 37.08905694 31.19348454 30.51171875 28.69970703 C28.38536517 27.82436422 26.51029559 26.82662886 24.546875 25.63720703 C21.14747546 23.71301861 17.98281343 22.79119013 14.234375 21.76220703 C13.574375 21.10220703 12.914375 20.44220703 12.234375 19.76220703 C10.04939812 18.92746385 7.8350456 18.16895006 5.609375 17.44970703 C4.61055298 17.12486328 4.61055298 17.12486328 3.59155273 16.79345703 C1.4749792 16.10831196 -0.64462294 15.43350881 -2.765625 14.76220703 C-3.43029785 14.55160645 -4.0949707 14.34100586 -4.77978516 14.12402344 C-8.09821534 13.07588212 -11.42027373 12.04055242 -14.74609375 11.01611328 C-17.38488342 10.20069603 -20.00995691 9.35402316 -22.62890625 8.47705078 C-41.2680536 2.2930346 -59.68570735 0.04778924 -79.26391602 -1.00415039 C-81.765625 -1.23779297 -81.765625 -1.23779297 -84.765625 -2.23779297 C-86.31308136 -2.34921884 -87.86473931 -2.40660786 -89.41601562 -2.43066406 C-90.36512817 -2.4465155 -91.31424072 -2.46236694 -92.29211426 -2.47869873 C-93.3249353 -2.4894342 -94.35775635 -2.50016968 -95.421875 -2.51123047 C-96.5001355 -2.52357727 -97.578396 -2.53592407 -98.68933105 -2.54864502 C-102.21479051 -2.58112117 -105.74004143 -2.59976829 -109.265625 -2.61279297 C-111.0585498 -2.62013458 -111.0585498 -2.62013458 -112.88769531 -2.62762451 C-132.06929764 -2.66014771 -150.44521503 -1.33719585 -169.29785156 2.13525391 Z " fill="#93741B" transform="translate(780.765625,110.23779296875)"/>
<path d="M0 0 C-0.38929688 0.43828125 -0.77859375 0.8765625 -1.1796875 1.328125 C-2.38532544 2.69488507 -3.58381004 4.06796969 -4.77734375 5.4453125 C-6.40010102 7.31048518 -8.03821817 9.15453103 -9.69140625 10.9921875 C-10.60745754 12.035856 -11.52282589 13.08012433 -12.4375 14.125 C-13.30246094 15.09695312 -14.16742187 16.06890625 -15.05859375 17.0703125 C-17.3194337 20.48204281 -17.72141027 21.99216518 -17 26 C-14.18442558 30.32537519 -10.3923804 34.08159805 -5.52734375 35.94921875 C-3.01359493 36.44718801 -0.55175103 36.76837952 2 37 C10.3860141 37.86440453 15.39752541 40.55523993 21 47 C21.33 47.99 21.66 48.98 22 50 C25.00847418 51.22520264 25.00847418 51.22520264 28 52 C27.94739565 48.06147625 27.85215802 44.12502539 27.75 40.1875 C27.73582031 39.08728516 27.72164062 37.98707031 27.70703125 36.85351562 C27.50534672 30.01641009 26.47416567 24.46788793 23.84863281 18.13793945 C23 16 23 16 23 14 C22.34 14 21.68 14 21 14 C21 12.35 21 10.7 21 9 C24.68285515 7.15857242 28.9710001 7.63547144 33 8 C35.6875 9.3125 35.6875 9.3125 38 11 C40.31979381 12.03101947 42.65429915 13.02936517 45 14 C46.31329318 14.56064563 47.62582377 15.12308174 48.9375 15.6875 C49.948125 16.120625 50.95875 16.55375 52 17 C52.66 14.36 53.32 11.72 54 9 C58.36289123 10.96383182 62.10872671 13.83499344 65.95898438 16.63476562 C69.79622281 19.35752867 73.61635155 21.22542672 78 23 C80.57331758 24.27377379 83.12024659 25.59004941 85.66796875 26.9140625 C87.78971962 27.90208049 89.71572496 28.52739137 92 29 C91.15429904 35.38847075 87.61654041 39.67061282 83 44 C80.24149248 45.37333422 77.58054943 46.27032131 74.62890625 47.140625 C70.71225061 48.42095819 68.13362403 50.3432318 65 53 C64.67 53.99 64.34 54.98 64 56 C65.093125 55.505 66.18625 55.01 67.3125 54.5 C71 53 71 53 74 53 C75.60546875 54.609375 75.60546875 54.609375 77.1875 56.75 C77.71730469 57.44609375 78.24710938 58.1421875 78.79296875 58.859375 C80 61 80 61 80 65 C78.1015625 66.921875 78.1015625 66.921875 75.625 68.75 C74.81289063 69.36359375 74.00078125 69.9771875 73.1640625 70.609375 C71 72 71 72 69 72 C68.71640625 72.72574219 68.4328125 73.45148438 68.140625 74.19921875 C65.3192891 81.12695109 62.03670079 87.37665074 57.33203125 93.2109375 C54.03633585 97.63741402 53.74780956 101.32256926 53.625 106.75 C53.1945929 116.62495882 50.27624756 121.70598257 44 129 C42.54929486 133.35211542 42.48448286 137.45090957 43 142 C44.59369766 145.30126596 44.59369766 145.30126596 45.90625 147.2109375 C48.22829538 151.00914029 50.41217248 155.80300724 49.57421875 160.26953125 C49.38472656 160.84058594 49.19523438 161.41164063 49 162 C43.81860821 160.37156258 40.60727341 157.49810823 37.66796875 152.9296875 C35.08485401 148.95894915 33.86236507 147.25446838 29.1875 145.875 C21.84737423 145.6858215 14.20613218 146.66205363 7 148 C6.34 148.66 5.68 149.32 5 150 C1.25064692 150.06278821 -2.4583605 149.86470551 -6.203125 149.6796875 C-10.59067037 150.04983022 -12.53596062 151.38659751 -16 154 C-16.66 154 -17.32 154 -18 154 C-18 154.66 -18 155.32 -18 156 C-18.763125 156.598125 -19.52625 157.19625 -20.3125 157.8125 C-23.25187643 160.2050157 -24.58023788 161.48795686 -26 165 C-26.70980006 171.95382246 -25.76198932 178.28241572 -24 185 C-23.34 185 -22.68 185 -22 185 C-20.89171223 186.23110594 -19.83725438 187.51103849 -18.8125 188.8125 C-15.53059548 192.62898278 -12.99414873 194.70840981 -8 196 C-2.83342765 196.11403301 1.09377141 195.5937303 5 192 C5.66 192 6.32 192 7 192 C7.268125 191.2575 7.53625 190.515 7.8125 189.75 C8.96023613 187.09208476 10.07714371 185.15359904 12 183 C14.88211302 182.03929566 16.69850044 181.89418117 19.6875 181.9375 C20.49574219 181.94652344 21.30398438 181.95554687 22.13671875 181.96484375 C23.05904297 181.98224609 23.05904297 181.98224609 24 182 C24.11459026 189.41017023 23.91160286 196.64206267 23 204 C24.01707031 203.7834375 24.01707031 203.7834375 25.0546875 203.5625 C31.28908239 202.31907498 37.63463466 201.15294551 44 202 C46.65189239 204.65189239 46.1641751 205.93966586 46.1875 209.625 C46.60089405 216.36089127 49.08210875 219.60041592 54 224 C54.33 224.33 54.66 224.66 55 225 C57.18292774 225.23481693 59.37203174 225.41363323 61.5625 225.5625 C62.76003906 225.64628906 63.95757813 225.73007812 65.19140625 225.81640625 C66.11824219 225.87699219 67.04507813 225.93757812 68 226 C67.62109375 227.921875 67.62109375 227.921875 67 230 C62.51650857 232.89257512 57.13028158 232.17931081 52 232 C52 231.01 52 230.02 52 229 C51.0409375 228.6596875 51.0409375 228.6596875 50.0625 228.3125 C48 227 48 227 47.37109375 224.41796875 C47.18740234 223.22107422 47.18740234 223.22107422 47 222 C46.27554688 222.04640625 45.55109375 222.0928125 44.8046875 222.140625 C38.49904311 222.37603572 35.05497723 222.11451635 30 218 C25.35294786 215.22654258 21.93971161 214.67915117 16.5625 214.625 C10.87440567 214.44064848 6.20627855 213.62093568 0.8125 211.625 C-5.24836031 209.39608509 -10.97452201 208.25099278 -17.375 207.4375 C-48.22237404 203.46079706 -48.22237404 203.46079706 -58.16015625 191.5625 C-60.45410401 188.36753242 -62.40432988 185.02562046 -64.375 181.625 C-68.23162949 174.98352621 -72.55985918 169.45783233 -78 164 C-78.4626123 163.53577637 -78.92522461 163.07155273 -79.40185547 162.59326172 C-81.76134776 160.22906455 -84.13017829 157.87715627 -86.51953125 155.54296875 C-89 153 -89 153 -91.18359375 150.2578125 C-93.01333031 147.98343028 -94.31616884 147.05436224 -97 146 C-95.40150278 153.51293693 -91.38791808 158.78264053 -86.86328125 164.87890625 C-86.14527344 165.84699219 -85.42726563 166.81507813 -84.6875 167.8125 C-84.01074219 168.70582031 -83.33398438 169.59914063 -82.63671875 170.51953125 C-81.1405096 172.78705585 -80.42633219 174.34932594 -80 177 C-79.34 177 -78.68 177 -78 177 C-78 178.65 -78 180.3 -78 182 C-83.3674189 177.77458512 -87.56591058 173.13384401 -91.80078125 167.77734375 C-93.13482707 166.09260738 -94.49980617 164.43097423 -95.91796875 162.81640625 C-102.11814425 155.57602471 -105.02043065 146.93870804 -108 138 C-109.66854338 136.86839793 -109.66854338 136.86839793 -111.6875 135.875 C-117.29327203 132.5034854 -120.5299902 127.92944927 -122.8125 121.828125 C-123.46349319 119.2060691 -123.7590257 116.69262592 -124 114 C-124.14050781 112.74832031 -124.28101563 111.49664062 -124.42578125 110.20703125 C-125.25459439 99.17616592 -122.50762158 90.44463599 -118.2019043 80.32373047 C-115.77190774 74.55928408 -114.31531469 70.27628202 -115 64 C-116.37926773 61.65738392 -116.37926773 61.65738392 -118 60 C-118 59.34 -118 58.68 -118 58 C-117.34 58 -116.68 58 -116 58 C-116.12761719 57.29875 -116.25523437 56.5975 -116.38671875 55.875 C-116.72239616 52.66644714 -116.70503456 50.15586899 -116 47 C-112.98495455 43.40310367 -109.02595517 41.30508482 -105 39 C-103.50930767 38.10470852 -102.01979508 37.20745081 -100.53125 36.30859375 C-77.99583792 22.85863199 -77.99583792 22.85863199 -68.98828125 20.06640625 C-65.56261462 18.84391345 -63.01534131 17.02178057 -60 15 C-51.03035479 11.01230314 -41.54315444 8.12199753 -32.1875 5.1875 C-31.24592041 4.88545654 -30.30434082 4.58341309 -29.33422852 4.2722168 C-23.64581386 2.53131214 -18.2913759 1.56090978 -12.34863281 1.21655273 C-7.58364403 0.77720294 -4.74514823 -1.43059671 0 0 Z " fill="#FCFCFB" transform="translate(606,127)"/>
<path d="M0 0 C10.04872288 -0.18563437 20.09703577 -0.32764429 30.1471262 -0.41449738 C34.81427781 -0.45619069 39.48025363 -0.51270788 44.14672852 -0.60351562 C48.65315679 -0.69065675 53.1584568 -0.73831818 57.66566277 -0.75901794 C59.38215838 -0.77376201 61.09859449 -0.80255619 62.81460762 -0.84584045 C76.27016185 -1.17163727 76.27016185 -1.17163727 80.55563354 1.73095703 C82.32572162 3.73872386 83.65194759 5.6964598 85 8 C87.44831493 10.8059731 89.39182791 12.79727597 93 14 C94.3671875 15.42578125 94.3671875 15.42578125 95.875 17.3125 C98.14767516 20.14388851 100.18850668 22.12926142 103.20195007 24.19561768 C107.91244987 27.47020075 112.09063112 30.8431112 113.72955704 36.53266907 C114.85205457 44.05918151 114.4909387 51.65285656 114.26953125 59.234375 C114.24525243 61.68340147 114.22676264 64.13249154 114.21379089 66.581604 C114.16440386 72.99480794 114.03693639 79.40411909 113.89263916 85.8157959 C113.75910138 92.37145329 113.70016291 98.92774648 113.63476562 105.484375 C113.49578781 118.3245674 113.27676725 131.16207568 113 144 C112.34 144 111.68 144 111 144 C110.814375 145.7325 110.814375 145.7325 110.625 147.5 C110.15695196 151.86844835 109.09967011 155.60131955 108 160 C94.14 160 80.28 160 66 160 C66 120.4 66 80.8 66 40 C60.06 40 54.12 40 48 40 C48 79.6 48 119.2 48 160 C32.49 160 16.98 160 1 160 C0 159 0 159 -0.12304783 156.39379025 C-0.12212604 155.22219136 -0.12120424 154.05059248 -0.12025452 152.8434906 C-0.12110894 152.19335135 -0.12196337 151.5432121 -0.12284368 150.87337166 C-0.12450026 148.6791442 -0.11897425 146.48499198 -0.11352539 144.29077148 C-0.11324353 142.72414146 -0.11340123 141.1575113 -0.1139679 139.59088135 C-0.11425592 135.32453623 -0.10835843 131.05821898 -0.10139394 126.79188037 C-0.09516118 122.33822949 -0.09455666 117.88457803 -0.09336853 113.43092346 C-0.09025498 104.99132557 -0.08204128 96.55174056 -0.07201904 88.11214834 C-0.06085863 78.50650556 -0.05534764 68.90086218 -0.05032361 59.29521453 C-0.03985868 39.53013582 -0.02225879 19.76506872 0 0 Z " fill="#FEFEFD" transform="translate(861,357)"/>
<path d="M0 0 C7.70380204 -0.27940415 15.40629533 -0.47173023 23.11401367 -0.60424805 C25.7343019 -0.65949558 28.35425208 -0.73451239 30.97338867 -0.82983398 C34.74482496 -0.96363375 38.51177629 -1.02571635 42.28515625 -1.07421875 C43.45208511 -1.13099289 44.61901398 -1.18776703 45.82130432 -1.2462616 C49.21175314 -1.24882101 51.79712592 -1.12442953 55 0 C57.39764102 2.5537569 58.93024329 5.03135923 60.52513123 8.14323425 C62.05611352 11.10868979 63.85744871 13.45200507 66 16 C66.79553927 17.12669308 67.57530272 18.26485039 68.33203125 19.41796875 C68.73446045 20.02745361 69.13688965 20.63693848 69.55151367 21.26489258 C69.96763916 21.89935303 70.38376465 22.53381348 70.8125 23.1875 C73.72656742 27.59472593 76.65272253 31.98691221 79.6875 36.3125 C80.44760958 37.40640517 80.44760958 37.40640517 81.22307491 38.52240944 C82.37895249 40.13406511 83.5789677 41.71525173 84.82679844 43.25681114 C89.77026206 49.59106503 90.99990776 54.10718532 90.79467773 62.04931641 C90.79569992 63.10416229 90.79672211 64.15900818 90.79777527 65.24581909 C90.79293609 68.69879405 90.7386653 72.14905516 90.68359375 75.6015625 C90.6705246 78.00864213 90.66056666 80.41574049 90.65357971 82.82284546 C90.6269586 89.13287513 90.55828518 95.44176204 90.48065186 101.75134277 C90.39616706 109.33537686 90.36426292 116.91979484 90.3234787 124.50416565 C90.25578807 136.00356986 90.12159623 147.5004708 90 159 C74.16 159 58.32 159 42 159 C42 136.89 42 114.78 42 92 C36.39 92 30.78 92 25 92 C25 114.11 25 136.22 25 159 C16.75 159 8.5 159 0 159 C-12.72723306 112.27389436 -22.73388549 45.46777098 0 0 Z " fill="#FDFDFB" transform="translate(371,358)"/>
<path d="M0 0 C0 42.9 0 85.8 0 130 C-26.73 130 -53.46 130 -81 130 C-81 114.49 -81 98.98 -81 83 C-98.82 83 -116.64 83 -135 83 C-135 56.27 -135 29.54 -135 2 C-130.63916456 3.74433418 -128.53226519 5.17418785 -125 8 C-122.3205355 9.24016669 -122.3205355 9.24016669 -120 10 C-120 10.66 -120 11.32 -120 12 C-119.32582031 12.24492187 -118.65164063 12.48984375 -117.95703125 12.7421875 C-114.35909286 14.27261836 -111.06123937 16.15843308 -107.6875 18.125 C-107.04232422 18.49753906 -106.39714844 18.87007813 -105.73242188 19.25390625 C-104.15324055 20.16632213 -102.57638136 21.08275509 -101 22 C-101.74840328 25.50656367 -103.05145816 28.63534366 -104.4375 31.9375 C-108.2230377 41.14576019 -111.36588237 50.58661274 -114.57202148 60.00756836 C-114.98653564 61.22452393 -115.4010498 62.44147949 -115.828125 63.6953125 C-116.1984082 64.78859863 -116.56869141 65.88188477 -116.95019531 67.00830078 C-117.89684085 69.70602042 -118.91472633 72.3554885 -120 75 C-119.26394531 74.51789063 -118.52789063 74.03578125 -117.76953125 73.5390625 C-116.30580078 72.59160156 -116.30580078 72.59160156 -114.8125 71.625 C-113.84957031 70.99851562 -112.88664063 70.37203125 -111.89453125 69.7265625 C-109 68 -109 68 -106.32421875 66.9609375 C-103.82272172 65.92670511 -102.86405862 64.91848369 -101 63 C-98.78937869 61.47475557 -96.57732026 60.00193104 -94.3125 58.5625 C-93.68255127 58.15854004 -93.05260254 57.75458008 -92.40356445 57.33837891 C-88.65694816 54.9635115 -84.90364425 52.88795864 -80.8671875 51.04296875 C-77.63864607 49.23957845 -74.93440629 46.738916 -72.17578125 44.29296875 C-70 43 -70 43 -67.29296875 43.1796875 C-64.34792615 44.23328025 -64.32115283 45.27512229 -63 48 C-61.34467693 48.6943542 -59.67562026 49.35616853 -58 50 C-56.24542672 50.980318 -54.51183938 51.99880632 -52.796875 53.046875 C-51.32541016 53.9440625 -51.32541016 53.9440625 -49.82421875 54.859375 C-48.80972656 55.48328125 -47.79523438 56.1071875 -46.75 56.75 C-45.25146484 57.66265625 -45.25146484 57.66265625 -43.72265625 58.59375 C-38.3865659 61.85818174 -33.12985507 65.20896924 -27.94287109 68.70507812 C-25.4870254 70.34189712 -22.97740612 71.87252032 -20.4375 73.375 C-19.59058594 73.87773437 -18.74367188 74.38046875 -17.87109375 74.8984375 C-17.25363281 75.26195312 -16.63617187 75.62546875 -16 76 C-16.64388672 75.04480469 -16.64388672 75.04480469 -17.30078125 74.0703125 C-19.47238365 70.14645162 -20.80472966 66.12915271 -22.1875 61.875 C-22.46013672 61.06417969 -22.73277344 60.25335938 -23.01367188 59.41796875 C-25 53.39426692 -25 53.39426692 -25 50 C-25.66 50 -26.32 50 -27 50 C-28.53843466 45.92308123 -30.05265189 41.83758284 -31.5625 37.75 C-32.00013672 36.59113281 -32.43777344 35.43226563 -32.88867188 34.23828125 C-33.29794922 33.12324219 -33.70722656 32.00820313 -34.12890625 30.859375 C-34.51119385 29.83295898 -34.89348145 28.80654297 -35.28735352 27.74902344 C-36.0180611 24.93032957 -36.18334631 23.63580252 -35 21 C-32.33203125 19.2109375 -32.33203125 19.2109375 -28.8125 17.375 C-22.79114676 14.13711724 -17.26983142 10.50609584 -11.79614258 6.41357422 C-3.1351096 0 -3.1351096 0 0 0 Z " fill="#0C0C09" transform="translate(788,386)"/>
<path d="M0 0 C15.51 0 31.02 0 47 0 C47 39.6 47 79.2 47 120 C65.15 120 83.3 120 102 120 C102 132.87 102 145.74 102 159 C68.34 159 34.68 159 0 159 C0 106.53 0 54.06 0 0 Z " fill="#FDFDFB" transform="translate(596,358)"/>
<path d="M0 0 C15.51 0 31.02 0 47 0 C47 39.27 47 78.54 47 119 C65.15 119 83.3 119 102 119 C102 131.87 102 144.74 102 158 C68.34 158 34.68 158 0 158 C0 105.86 0 53.72 0 0 Z " fill="#FEFDFC" transform="translate(478,359)"/>
<path d="M0 0 C2.5625 1 2.5625 1 4.625 3.5 C8.57134578 6.85859216 11.75119835 7.03370638 16.83203125 7.28125 C19.79025726 7.27624455 19.79025726 7.27624455 21.8125 4.625 C22.39 3.75875 22.9675 2.8925 23.5625 2 C26.44675054 1.33044184 28.64818012 1.06559562 31.5625 1 C32.59117187 0.96132812 33.61984375 0.92265625 34.6796875 0.8828125 C40.81307876 0.75043715 40.81307876 0.75043715 43.5625 1 C45.5625 3 45.5625 3 46.375 5.8125 C47.76532627 9.54442842 49.64770973 11.44615338 52.5625 14 C54.14691955 15.41545173 55.73013097 16.83225632 57.3125 18.25 C58.17746094 19.01957031 59.04242187 19.78914063 59.93359375 20.58203125 C63.25469573 23.6366555 66.36721362 26.86542706 69.45703125 30.15234375 C71.76284602 32.17581385 73.61122637 33.18153912 76.5625 34 C79.11753957 32.71711243 79.11753957 32.71711243 81.5625 31 C83.21966743 30.62226331 84.88640791 30.28214217 86.5625 30 C87.24916343 41.10105886 84.86325647 48.09201503 79.3125 57.5625 C76.56879983 62.50673127 75.30129714 66.39695122 76.5625 72 C77.48853147 74.0815921 78.55015398 76.04007288 79.6484375 78.03515625 C81.2194882 81.41224386 81.52276804 84.39366004 80.5625 88 C79.18738519 90.01309911 77.64321617 91.81444581 76.07421875 93.6796875 C74.21913877 96.52701956 73.71159073 98.98443481 73.0625 102.3125 C71.06988305 112.20687384 66.87166061 120.11448839 58.91796875 126.49609375 C55.86174835 128.44741192 53.47839123 129.64055073 49.82421875 129.76171875 C44.55365159 127.98665727 41.63565138 122.35218425 38.5625 118 C36.16153746 115.07072109 33.73750391 112.14518147 31.0234375 109.5 C27.45367836 105.83479276 27.35216791 103.3113232 27.25 98.375 C26.69363039 88.91671661 23.48943599 83.36529253 16.5625 77 C14.53899676 73.96474514 14.24125982 72.80573798 13.9375 69.3125 C13.86273437 68.50425781 13.78796875 67.69601562 13.7109375 66.86328125 C13.66195312 66.24839844 13.61296875 65.63351562 13.5625 65 C12.93601562 65.09539062 12.30953125 65.19078125 11.6640625 65.2890625 C10.84679687 65.39992188 10.02953125 65.51078125 9.1875 65.625 C8.37539063 65.74101562 7.56328125 65.85703125 6.7265625 65.9765625 C6.01242187 65.98429687 5.29828125 65.99203125 4.5625 66 C3.5725 65.01 3.5725 65.01 2.5625 64 C0.49375966 63.3574765 0.49375966 63.3574765 -1.4375 63 C-1.4375 63.66 -1.4375 64.32 -1.4375 65 C-2.9534375 65.4021875 -2.9534375 65.4021875 -4.5 65.8125 C-7.17146232 66.55814912 -9.32817683 67.42104723 -11.875 68.625 C-16.30412446 70.33448663 -18.71543207 70.52467421 -23.4375 70 C-30.50999476 66.68025756 -35.71412174 59.69215864 -38.375 52.4375 C-41.50358305 40.98570545 -37.27707288 30.74243918 -31.6875 20.625 C-27.33928191 13.80492666 -20.27715538 6.73993456 -12.33984375 4.375 C-11.69144531 4.25125 -11.04304687 4.1275 -10.375 4 C-7.6708617 3.40752026 -6.49492127 3.04429641 -4.25 1.3125 C-2.4375 0 -2.4375 0 0 0 Z " fill="#FBFBFA" transform="translate(827.4375,213)"/>
<path d="M0 0 C16.17 0 32.34 0 49 0 C49 35.64 49 71.28 49 108 C32.83 108 16.66 108 0 108 C0 72.36 0 36.72 0 0 Z " fill="#FBFBF8" transform="translate(796,409)"/>
<path d="M0 0 C-5.49243883 5.15354367 -11.01428055 9.85934445 -17.26171875 14.06640625 C-19.88039061 15.91553973 -22.34381225 17.87345814 -24.82470703 19.89941406 C-32.40387794 26.06241507 -40.37210819 31.04346953 -48.88720703 35.80908203 C-50.91676847 36.95308488 -52.92675542 38.12528073 -54.93359375 39.30859375 C-62.33389048 43.63388984 -69.87840931 47.46213685 -77.6875 51 C-78.53739502 51.38615479 -79.38729004 51.77230957 -80.26293945 52.17016602 C-84.14463013 53.89065082 -87.75027101 55.44606384 -92 56 C-92 56.66 -92 57.32 -92 58 C-109.69099667 64.26792419 -127.23175238 69.29583669 -145.53930664 73.38671875 C-147.98357654 73.90110619 -147.98357654 73.90110619 -150 75 C-154.12980199 75.66427771 -157.88387314 75.80211703 -162 75 C-167.41535101 70.87030786 -170.20986384 64.04439669 -172.95703125 57.96875 C-173.84233837 55.83674096 -173.84233837 55.83674096 -176 55 C-178.06085642 50.87828716 -179.42161769 47.63779454 -179 43 C-175.014077 42.04271829 -171.0812401 41.74574008 -167.00732422 41.45556641 C-156.05144695 40.65687821 -145.22722978 39.28484786 -134.375 37.625 C-133.70544281 37.5259436 -133.03588562 37.42688721 -132.34603882 37.3248291 C-124.38282002 36.13821754 -116.88128054 34.47872469 -109.22900391 31.98583984 C-102.43299791 29.9109667 -95.42084707 28.68719003 -88.4609375 27.2890625 C-81.43628703 25.84052039 -74.63956569 24.08111657 -67.81542969 21.8671875 C-65.29671199 21.091391 -62.83340516 20.50668075 -60.25 20 C-57.36667605 19.39826283 -54.9396502 18.59028141 -52.2890625 17.3125 C-45.09697525 14.04390579 -37.57967069 11.59320733 -30.125 9 C-27.87905821 8.21501063 -25.63349308 7.42895582 -23.38812256 6.64233398 C-21.93895052 6.13522259 -20.4892915 5.62950047 -19.03912354 5.12524414 C-13.98934132 3.36539805 -8.9823473 1.50888372 -3.99951172 -0.43359375 C-2 -1 -2 -1 0 0 Z " fill="#FAFAF9" transform="translate(878,664)"/>
<path d="M0 0 C0.66 0 1.32 0 2 0 C2.24234375 0.70125 2.4846875 1.4025 2.734375 2.125 C4.28616855 6.51776944 5.80635215 10.82005781 8 14.9375 C11.46495572 21.59241495 14 28.48117167 14 36 C28.19 36 42.38 36 57 36 C54.71946667 38.28053333 53.15590088 39.6598341 50.49609375 41.26171875 C49.83802734 41.65810547 49.17996094 42.05449219 48.50195312 42.46289062 C47.82068359 42.86701172 47.13941406 43.27113281 46.4375 43.6875 C45.75236328 44.10322266 45.06722656 44.51894531 44.36132812 44.94726562 C39.2533867 48 39.2533867 48 37 48 C37 48.66 37 49.32 37 50 C35.04775792 51.28406399 33.03659238 52.47941678 31 53.625 C29.88625 54.25664062 28.7725 54.88828125 27.625 55.5390625 C26.75875 56.02117187 25.8925 56.50328125 25 57 C25.39742225 62.82885974 27.34751833 67.46104954 29.66015625 72.796875 C32.3932501 79.33080198 34.73357596 86.02200355 36 93 C26.9716249 89.62874882 18.98932889 84.1002038 11.203125 78.51171875 C8.55980072 76.69794837 5.92140366 75.30694374 3 74 C3 73.34 3 72.68 3 72 C-6.8824216 76.75820299 -15.97153267 82.54394842 -24.99829102 88.74853516 C-29.78458176 92 -29.78458176 92 -32 92 C-31.40492398 87.9510176 -30.52773955 84.21664061 -29.22265625 80.33984375 C-28.87396484 79.29892578 -28.52527344 78.25800781 -28.16601562 77.18554688 C-27.80185547 76.11369141 -27.43769531 75.04183594 -27.0625 73.9375 C-26.70220703 72.86177734 -26.34191406 71.78605469 -25.97070312 70.67773438 C-24.41892614 66.06812798 -22.84069542 61.50350349 -21 57 C-21.67546875 56.75765625 -22.3509375 56.5153125 -23.046875 56.265625 C-26.63982345 54.72578995 -29.92033543 52.78009863 -33.25 50.75 C-33.91169189 50.34885986 -34.57338379 49.94771973 -35.25512695 49.53442383 C-48.59407247 41.40592753 -48.59407247 41.40592753 -54 36 C-39.81 36 -25.62 36 -11 36 C-10.67 33.69 -10.34 31.38 -10 29 C-9.54524813 27.40319727 -9.0409959 25.81921993 -8.4765625 24.2578125 C-8.1775 23.41863281 -7.8784375 22.57945312 -7.5703125 21.71484375 C-7.25835938 20.86019531 -6.94640625 20.00554687 -6.625 19.125 C-6.0123713 17.41950401 -5.40038789 15.71377609 -4.7890625 14.0078125 C-4.49161133 13.1818457 -4.19416016 12.35587891 -3.88769531 11.50488281 C-2.53526592 7.68862167 -1.26141974 3.8471555 0 0 Z " fill="#FCFBF8" transform="translate(718,348)"/>
<path d="M0 0 C10.56 0 21.12 0 32 0 C34.31 3.63 36.62 7.26 39 11 C42.26898176 15.67760546 42.26898176 15.67760546 46 20 C46.0928726 21.41225046 46.11746772 22.82908934 46.11352539 24.24438477 C46.11344986 25.14524307 46.11337433 26.04610138 46.11329651 26.97425842 C46.10813522 27.95341721 46.10297394 28.93257599 46.09765625 29.94140625 C46.0962413 30.93881332 46.09482635 31.9362204 46.09336853 32.96385193 C46.08775114 36.16343124 46.07519571 39.36294169 46.0625 42.5625 C46.05748724 44.72591045 46.05292395 46.88932199 46.04882812 49.05273438 C46.03777606 54.36851629 46.02049979 59.68424646 46 65 C39.73 65 33.46 65 27 65 C27 56.09 27 47.18 27 38 C24.69 38 22.38 38 20 38 C20.00785522 39.21901001 20.00785522 39.21901001 20.01586914 40.46264648 C20.03656994 44.12092322 20.04963803 47.77918767 20.0625 51.4375 C20.07087891 52.71689453 20.07925781 53.99628906 20.08789062 55.31445312 C20.09272461 57.13686523 20.09272461 57.13686523 20.09765625 58.99609375 C20.10551147 60.68496704 20.10551147 60.68496704 20.11352539 62.40795898 C20 65 20 65 19 66 C12.73 66 6.46 66 0 66 C0 44.22 0 22.44 0 0 Z " fill="#98781D" transform="translate(468,541)"/>
<path d="M0 0 C33.71428571 0 33.71428571 0 40.8125 6.625 C41.534375 7.40875 42.25625 8.1925 43 9 C43.66 9.66 44.32 10.32 45 11 C45.67462154 15.94199502 46.03227356 20.5204079 43.125 24.6875 C41 26 41 26 39 26 C38.505 27.485 38.505 27.485 38 29 C37.34 29 36.68 29 36 29 C36 29.66 36 30.32 36 31 C38.97 31 41.94 31 45 31 C46.37523467 48.79315974 46.37523467 48.79315974 43.171875 53.93359375 C40.87736492 55.88240777 38.5493438 57.40716675 36 59 C34.35 60.65 32.7 62.3 31 64 C20.77 64 10.54 64 0 64 C0 42.88 0 21.76 0 0 Z " fill="#98791F" transform="translate(417,542)"/>
<path d="M0 0 C23.1 0.33 46.2 0.66 70 1 C71.32 4.96 72.64 8.92 74 13 C75.30126186 15.89724329 76.60476272 18.69125766 78.0625 21.5 C78.40087891 22.17546875 78.73925781 22.8509375 79.08789062 23.546875 C80.81685911 26.94461577 82.70470038 29.96820237 85 33 C85 33.66 85 34.32 85 35 C75.654097 38.115301 64.88738021 37.23694097 55.125 37.25 C54.39287292 37.25200409 53.66074585 37.25400818 52.90643311 37.256073 C36.93751413 37.26667366 19.46236364 37.23423155 4 33 C0.63793504 21.49708592 0 12.30686358 0 0 Z " fill="#F7F7F6" transform="translate(616,707)"/>
<path d="M0 0 C31 0 31 0 39.4375 4.25 C43.19977114 8.02837216 44.77179576 10.9186152 45.125 16.25 C44.49366117 21.72160322 43.03082349 24.33561501 39 28 C38.236875 28.78375 37.47375 29.5675 36.6875 30.375 C36.130625 30.91125 35.57375 31.4475 35 32 C37.97 32 40.94 32 44 32 C45.22653287 50.006184 45.22653287 50.006184 42.2890625 54.78125 C40.26998826 56.44315949 38.25904292 57.69810177 36 59 C35.34 59.99 34.68 60.98 34 62 C33.34 62 32.68 62 32 62 C32 62.66 32 63.32 32 64 C21.44 64 10.88 64 0 64 C0 42.88 0 21.76 0 0 Z " fill="#997A20" transform="translate(730,542)"/>
<path d="M0 0 C10.23 0 20.46 0 31 0 C31.66 1.32 32.32 2.64 33 4 C33.66 4 34.32 4 35 4 C35.53625 4.969375 36.0725 5.93875 36.625 6.9375 C37.82085676 9.07750245 39.03481308 11.04560462 40.52383423 12.99620056 C44.977919 18.88982739 45.83215337 23.22108105 45.5859375 30.50390625 C45.57744781 31.4677977 45.56895813 32.43168915 45.56021118 33.42478943 C45.52690389 36.47188095 45.45166926 39.51622277 45.375 42.5625 C45.34487102 44.64123754 45.31750039 46.720017 45.29296875 48.79882812 C45.23231129 53.86776969 45.11486961 58.93084651 45 64 C38.73 64 32.46 64 26 64 C26 55.09 26 46.18 26 37 C23.36 37 20.72 37 18 37 C18 45.91 18 54.82 18 64 C12.06 64 6.12 64 0 64 C0 42.88 0 21.76 0 0 Z " fill="#98791E" transform="translate(782,542)"/>
<path d="M0 0 C6.27 0 12.54 0 19 0 C19 8.25 19 16.5 19 25 C19.66 25 20.32 25 21 25 C21.33 24.01 21.66 23.02 22 22 C22.99 21.34 23.98 20.68 25 20 C25.58348752 17.3443272 25.58348752 17.3443272 25.6875 14.375 C25.790625 12.60125 25.89375 10.8275 26 9 C32.27 9 38.54 9 45 9 C45.95971684 20.51660206 45.95971684 20.51660206 43.2890625 24.64453125 C41.28086685 26.6563518 39.36729029 28.42656007 37 30 C36.34 30 35.68 30 35 30 C35 30.66 35 31.32 35 32 C38.3 32 41.6 32 45 32 C45 45.2 45 58.4 45 72 C38.73 72 32.46 72 26 72 C26 60.78 26 49.56 26 38 C23.69 38 21.38 38 19 38 C19 46.58 19 55.16 19 64 C12.73 64 6.46 64 0 64 C0 42.88 0 21.76 0 0 Z " fill="#97781C" transform="translate(573,542)"/>
<path d="M0 0 C6.27 0 12.54 0 19 0 C19 2.64 19 5.28 19 8 C27.58 8 36.16 8 45 8 C45 11.3 45 14.6 45 18 C36.42 18 27.84 18 19 18 C19 28.23 19 38.46 19 49 C21.64 49 24.28 49 27 49 C27 41.41 27 33.82 27 26 C32.94 26 38.88 26 45 26 C45 38.54 45 51.08 45 64 C39.988125 64.165 34.97625 64.33 29.8125 64.5 C28.23960205 64.57283203 26.6667041 64.64566406 25.04614258 64.72070312 C15.15623784 64.87925871 15.15623784 64.87925871 12.21240234 62.640625 C11.07421875 60.78125 11.07421875 60.78125 10.15283203 58.53979492 C9.06280025 55.82668409 9.06280025 55.82668409 6.74560547 53.3605957 C-1.83693721 43.27066819 -1.06392795 33.43344099 -0.5625 20.6875 C-0.51726384 18.67522066 -0.47621546 16.66284261 -0.43945312 14.65039062 C-0.34889836 9.76244549 -0.17283492 4.88845443 0 0 Z " fill="#98791E" transform="translate(677,542)"/>
<path d="M0 0 C1.46604895 0.04016572 2.93220334 0.07666116 4.3984375 0.109375 C7.9786845 0.19037606 11.54422972 0.34672089 15.125 0.5 C15.125 5.45 15.125 10.4 15.125 15.5 C6.545 15.83 -2.035 16.16 -10.875 16.5 C-11.205 19.8 -11.535 23.1 -11.875 26.5 C-2.965 26.5 5.945 26.5 15.125 26.5 C15.31432655 31.02280103 15.45290165 35.53765366 15.5625 40.0625 C15.62115234 41.33931641 15.67980469 42.61613281 15.74023438 43.93164062 C15.91021646 53.2806555 15.91021646 53.2806555 13.60595703 56.85888672 C11.86429218 58.57526424 10.05930504 60.0116697 8.125 61.5 C7.465 62.49 6.805 63.48 6.125 64.5 C3.35871085 64.7667616 0.81880369 64.84804189 -1.9453125 64.79296875 C-2.74154022 64.78872391 -3.53776794 64.78447906 -4.35812378 64.78010559 C-6.90575729 64.76328834 -9.45260489 64.72563179 -12 64.6875 C-13.72524901 64.67245705 -15.45051039 64.65876796 -17.17578125 64.64648438 C-21.40915782 64.61337501 -25.64194559 64.56157285 -29.875 64.5 C-29.875 59.88 -29.875 55.26 -29.875 50.5 C-20.305 50.5 -10.735 50.5 -0.875 50.5 C-0.875 46.21 -0.875 41.92 -0.875 37.5 C-10.445 37.5 -20.015 37.5 -29.875 37.5 C-31.00094031 18.78124242 -31.00094031 18.78124242 -24.2109375 11.0546875 C-23.44007813 10.21164062 -22.66921875 9.36859375 -21.875 8.5 C-21.52711426 7.81905273 -21.17922852 7.13810547 -20.82080078 6.43652344 C-16.20057097 -1.88467041 -8.39785278 -0.39918045 0 0 Z " fill="#997A20" transform="translate(550.875,541.5)"/>
<path d="M0 0 C14.52 0 29.04 0 44 0 C44 4.95 44 9.9 44 15 C35.42 15 26.84 15 18 15 C18 18.63 18 22.26 18 26 C21.3 26 24.6 26 28 26 C28 29.63 28 33.26 28 37 C24.7 37 21.4 37 18 37 C18 40.96 18 44.92 18 49 C26.58 49 35.16 49 44 49 C44 53.62 44 58.24 44 63 C29.48 63 14.96 63 0 63 C0 42.21 0 21.42 0 0 Z " fill="#98781D" transform="translate(626,542)"/>
<path d="M0 0 C6.27 0 12.54 0 19 0 C20 1 20 1 20.12025452 2.98048401 C20.1169236 4.2828727 20.1169236 4.2828727 20.11352539 5.61157227 C20.11344986 6.59251358 20.11337433 7.5734549 20.11329651 8.5841217 C20.10813522 9.6507756 20.10297394 10.7174295 20.09765625 11.81640625 C20.0962413 12.9025975 20.09482635 13.98878876 20.09336853 15.1078949 C20.08775048 18.59279075 20.07519492 22.07762342 20.0625 25.5625 C20.05748733 27.91861887 20.05292402 30.27473874 20.04882812 32.63085938 C20.03777518 38.42059743 20.02049846 44.21028799 20 50 C26.93 50 33.86 50 41 50 C41 55.28 41 60.56 41 66 C27.47 66 13.94 66 0 66 C0 44.22 0 22.44 0 0 Z " fill="#97771B" transform="translate(881,541)"/>
<path d="M0 0 C5.14355891 0.96726218 10.20415058 2.04402414 15.25 3.4375 C28.45803828 6.807945 42.41792057 8.10449557 56 9 C56.029729 9.98226562 56.029729 9.98226562 56.06005859 10.984375 C56.15610522 13.98994448 56.26545784 16.99489331 56.375 20 C56.4059375 21.02996094 56.436875 22.05992187 56.46875 23.12109375 C56.69488086 29.03818471 57.31982449 34.31745519 59 40 C52.96003743 39.43468331 47.28971334 38.5180201 41.4375 36.9375 C40.64682129 36.72633545 39.85614258 36.5151709 39.04150391 36.29760742 C31.91972008 34.34415296 24.89070733 32.1151421 17.875 29.8125 C16.81337646 29.46759521 15.75175293 29.12269043 14.65795898 28.76733398 C13.67512939 28.43805908 12.6922998 28.10878418 11.6796875 27.76953125 C10.80038574 27.47667236 9.92108398 27.18381348 9.01513672 26.88208008 C7 26 7 26 6 24 C3.96609778 23.1183514 1.8964225 22.31836342 -0.1875 21.5625 C-4.61947502 19.94672854 -8.81376445 18.17887525 -13 16 C-12.154375 15.030625 -11.30875 14.06125 -10.4375 13.0625 C-6.80214054 8.82847752 -3.39403181 4.42830778 0 0 Z " fill="#F9F9F7" transform="translate(547,696)"/>
<path d="M0 0 C15.51 0 31.02 0 47 0 C47 10.89 47 21.78 47 33 C31.49 33 15.98 33 0 33 C0 22.11 0 11.22 0 0 Z " fill="#FEFDFC" transform="translate(797,359)"/>
<path d="M0 0 C5.94 0 11.88 0 18 0 C18 16.17 18 32.34 18 49 C25.26 49 32.52 49 40 49 C40 53.95 40 58.9 40 64 C26.8 64 13.6 64 0 64 C0 42.88 0 21.76 0 0 Z " fill="#98781E" transform="translate(834,542)"/>
<path d="M0 0 C25.74 0 51.48 0 78 0 C78 0.66 78 1.32 78 2 C52.92 2 27.84 2 2 2 C2 53.81 2 105.62 2 159 C16.85 159 31.7 159 47 159 C47 119.73 47 80.46 47 40 C47.33 40 47.66 40 48 40 C48 79.6 48 119.2 48 160 C32.49 160 16.98 160 1 160 C0 159 0 159 -0.12304783 156.39379025 C-0.12212604 155.22219136 -0.12120424 154.05059248 -0.12025452 152.8434906 C-0.12110894 152.19335135 -0.12196337 151.5432121 -0.12284368 150.87337166 C-0.12450026 148.6791442 -0.11897425 146.48499198 -0.11352539 144.29077148 C-0.11324353 142.72414146 -0.11340123 141.1575113 -0.1139679 139.59088135 C-0.11425592 135.32453623 -0.10835843 131.05821898 -0.10139394 126.79188037 C-0.09516118 122.33822949 -0.09455666 117.88457803 -0.09336853 113.43092346 C-0.09025498 104.99132557 -0.08204128 96.55174056 -0.07201904 88.11214834 C-0.0587736 76.71194166 -0.05335819 65.31173148 -0.04751682 53.91151905 C-0.0381014 35.94100304 -0.01818265 17.97051423 0 0 Z " fill="#D9D0BA" transform="translate(861,357)"/>
<path d="M0 0 C195.36 0 390.72 0 592 0 C592 0.33 592 0.66 592 1 C397.63 1.33 203.26 1.66 3 2 C3.33 4.97 3.66 7.94 4 11 C3.34 10.67 2.68 10.34 2 10 C1.34 6.7 0.68 3.4 0 0 Z " fill="#E3DBC3" transform="translate(374,525)"/>
<path d="M0 0 C0.84949219 0.28875 1.69898438 0.5775 2.57421875 0.875 C7.10657899 2.36339196 11.68721392 3.67449352 16.26953125 5 C19 6 19 6 20 8 C21.87119691 8.77855656 21.87119691 8.77855656 24.1640625 9.3671875 C25.03264893 9.61130371 25.90123535 9.85541992 26.79614258 10.10693359 C27.72966553 10.36039551 28.66318848 10.61385742 29.625 10.875 C31.03978638 11.26872803 31.03978638 11.26872803 32.4831543 11.67041016 C35.31955399 12.45662928 38.15896613 13.23071066 41 14 C41.81259277 14.22042969 42.62518555 14.44085937 43.46240234 14.66796875 C47.63691709 15.79675035 51.81585283 16.90736556 56 18 C55.21654285 19.17219543 54.42297164 20.33763668 53.625 21.5 C53.18414063 22.1496875 52.74328125 22.799375 52.2890625 23.46875 C51.65097656 24.22671875 51.65097656 24.22671875 51 25 C50.34 25 49.68 25 49 25 C49 25.66 49 26.32 49 27 C47.3125 28.6875 47.3125 28.6875 45 30 C39.76414226 29.85455951 33.79558109 26.84941007 30.17578125 23.12109375 C27.00332473 20.02837582 23.23761865 18.01990239 19.42578125 15.82421875 C17.91973787 14.93288695 16.45547358 13.97171791 15 13 C15 12.34 15 11.68 15 11 C14.45859375 10.9278125 13.9171875 10.855625 13.359375 10.78125 C10.05033546 9.68554154 7.91476302 7.72768549 5.25 5.5 C4.26515625 4.6853125 3.2803125 3.870625 2.265625 3.03125 C1.51796875 2.3609375 0.7703125 1.690625 0 1 C0 0.67 0 0.34 0 0 Z " fill="#F1F1F0" transform="translate(477,675)"/>
<path d="M0 0 C6.27 0 12.54 0 19 0 C20 1 20 1 20.12025452 2.98048401 C20.1169236 4.2828727 20.1169236 4.2828727 20.11352539 5.61157227 C20.11344986 6.59251358 20.11337433 7.5734549 20.11329651 8.5841217 C20.10813522 9.6507756 20.10297394 10.7174295 20.09765625 11.81640625 C20.0962413 12.9025975 20.09482635 13.98878876 20.09336853 15.1078949 C20.08775048 18.59279075 20.07519492 22.07762342 20.0625 25.5625 C20.05748733 27.91861887 20.05292402 30.27473874 20.04882812 32.63085938 C20.03777519 38.42059464 20.02101951 44.21029281 20 50 C19.34 50 18.68 50 18 50 C18 34.16 18 18.32 18 2 C12.72 2 7.44 2 2 2 C2 22.46 2 42.92 2 64 C14.87 64 27.74 64 41 64 C41 64.66 41 65.32 41 66 C27.47 66 13.94 66 0 66 C0 44.22 0 22.44 0 0 Z " fill="#B8A266" transform="translate(881,541)"/>
<path d="M0 0 C0.66 0 1.32 0 2 0 C2.27150879 0.55349121 2.54301758 1.10698242 2.82275391 1.67724609 C9.42177431 15.27888441 9.42177431 15.27888441 17.0390625 28.3203125 C18 30 18 30 18 32 C12.06 32 6.12 32 0 32 C0 21.44 0 10.88 0 0 Z " fill="#987921" transform="translate(395,390)"/>
<path d="M0 0 C10.56 0 21.12 0 32 0 C32 0.66 32 1.32 32 2 C22.1 2 12.2 2 2 2 C2 22.46 2 42.92 2 64 C7.61 64 13.22 64 19 64 C19 55.09 19 46.18 19 37 C21.64 37 24.28 37 27 37 C27 37.33 27 37.66 27 38 C24.69 38 22.38 38 20 38 C20.00785522 39.21901001 20.00785522 39.21901001 20.01586914 40.46264648 C20.03656994 44.12092322 20.04963803 47.77918767 20.0625 51.4375 C20.07087891 52.71689453 20.07925781 53.99628906 20.08789062 55.31445312 C20.09272461 57.13686523 20.09272461 57.13686523 20.09765625 58.99609375 C20.10551147 60.68496704 20.10551147 60.68496704 20.11352539 62.40795898 C20 65 20 65 19 66 C12.73 66 6.46 66 0 66 C0 44.22 0 22.44 0 0 Z " fill="#BAA56A" transform="translate(468,541)"/>
<path d="M0 0 C6.27 0 12.54 0 19 0 C19 8.25 19 16.5 19 25 C19.66 25 20.32 25 21 25 C21.33 24.01 21.66 23.02 22 22 C22.33 22.66 22.66 23.32 23 24 C22.67 24.66 22.34 25.32 22 26 C20.68 26 19.36 26 18 26 C18 17.75 18 9.5 18 1 C12.72 1 7.44 1 2 1 C2 21.13 2 41.26 2 62 C7.28 62 12.56 62 18 62 C18 54.08 18 46.16 18 38 C18.33 38 18.66 38 19 38 C19 46.58 19 55.16 19 64 C12.73 64 6.46 64 0 64 C0 42.88 0 21.76 0 0 Z " fill="#A5893C" transform="translate(573,542)"/>
<path d="M0 0 C31.02 0 62.04 0 94 0 C94 0.33 94 0.66 94 1 C63.97 1.33 33.94 1.66 3 2 C3.33 4.97 3.66 7.94 4 11 C3.34 10.67 2.68 10.34 2 10 C1.34 6.7 0.68 3.4 0 0 Z " fill="#E4DCC5" transform="translate(374,525)"/>
<path d="M0 0 C1.084021 0.00523682 2.16804199 0.01047363 3.28491211 0.01586914 C5.03964844 0.02070312 5.03964844 0.02070312 6.82983398 0.02563477 C8.67738281 0.03820312 8.67738281 0.03820312 10.56225586 0.05102539 C12.41560547 0.05779297 12.41560547 0.05779297 14.30639648 0.06469727 C17.37089703 0.07652931 20.43530307 0.09301366 23.49975586 0.11352539 C23.49975586 0.44352539 23.49975586 0.77352539 23.49975586 1.11352539 C15.24975586 1.11352539 6.99975586 1.11352539 -1.50024414 1.11352539 C-1.50024414 3.75352539 -1.50024414 6.39352539 -1.50024414 9.11352539 C6.74975586 9.11352539 14.99975586 9.11352539 23.49975586 9.11352539 C23.49975586 9.77352539 23.49975586 10.43352539 23.49975586 11.11352539 C14.58975586 11.11352539 5.67975586 11.11352539 -3.50024414 11.11352539 C-3.50024414 0.15893111 -3.50024414 0.15893111 0 0 Z " fill="#E0D6BB" transform="translate(542.500244140625,556.886474609375)"/>
<path d="M0 0 C0.66 0 1.32 0 2 0 C2.66 1.98 3.32 3.96 4 6 C3.67 6 3.34 6 3 6 C2.67 14.25 2.34 22.5 2 31 C6.62 31 11.24 31 16 31 C16.33 30.34 16.66 29.68 17 29 C17.33 29.99 17.66 30.98 18 32 C12.06 32 6.12 32 0 32 C0 21.44 0 10.88 0 0 Z " fill="#B5A065" transform="translate(395,390)"/>
<path d="M0 0 C2.31 0 4.62 0 7 0 C7 3.96 7 7.92 7 12 C4.69 12 2.38 12 0 12 C0 8.04 0 4.08 0 0 Z " fill="#F5F2EA" transform="translate(436,579)"/>
<path d="M0 0 C0.66 0 1.32 0 2 0 C0.37843976 4.10108886 -2.5767703 6.83148167 -5.6640625 9.859375 C-6.21613373 10.40861633 -6.76820496 10.95785767 -7.33700562 11.52374268 C-9.09501815 13.27059293 -10.8598689 15.01034601 -12.625 16.75 C-13.8207708 17.93573591 -15.01608865 19.1219288 -16.2109375 20.30859375 C-19.13540253 23.21105085 -22.06601874 26.1071641 -25 29 C-25.66 28.67 -26.32 28.34 -27 28 C-21.81693033 21.90350759 -16.34216406 16.15927259 -10.6875 10.5 C-9.87732422 9.67757812 -9.06714844 8.85515625 -8.23242188 8.0078125 C-7.45833984 7.23179687 -6.68425781 6.45578125 -5.88671875 5.65625 C-4.83810669 4.60147461 -4.83810669 4.60147461 -3.76831055 3.52539062 C-2 2 -2 2 0 2 C0 1.34 0 0.68 0 0 Z " fill="#27200D" transform="translate(453,189)"/>
<path d="M0 0 C1.98 0 3.96 0 6 0 C6 3.96 6 7.92 6 12 C4.02 12 2.04 12 0 12 C0 8.04 0 4.08 0 0 Z " fill="#F8F6EF" transform="translate(749,579)"/>
<path d="M0 0 C2.31 0 4.62 0 7 0 C7 3.3 7 6.6 7 10 C4.69 10 2.38 10 0 10 C0 6.7 0 3.4 0 0 Z " fill="#F6F4EC" transform="translate(436,558)"/>
<path d="M0 0 C0.99 0.99 1.98 1.98 3 3 C3 3.66 3 4.32 3 5 C3.66 5 4.32 5 5 5 C8 10.75 8 10.75 8 13 C5.36 13 2.72 13 0 13 C0 8.71 0 4.42 0 0 Z " fill="#D3C59F" transform="translate(487,555)"/>
<path d="M0 0 C3.66336097 1.22112032 4.35042014 2.86720482 6.23046875 6.11328125 C7 8 7 8 7 12 C4.69 12 2.38 12 0 12 C0 8.04 0 4.08 0 0 Z " fill="#E5DDC7" transform="translate(800,556)"/>
<path d="M0 0 C1.98 0 3.96 0 6 0 C6 2.97 6 5.94 6 9 C4.02 9 2.04 9 0 9 C0 6.03 0 3.06 0 0 Z " fill="#FCFBF8" transform="translate(749,558)"/>
<path d="M0 0 C0.66 0.33 1.32 0.66 2 1 C-7.41002278 11.55808656 -7.41002278 11.55808656 -12 16 C-12.99 15.67 -13.98 15.34 -15 15 C-10.05 10.05 -5.1 5.1 0 0 Z " fill="#353533" transform="translate(719,623)"/>
<path d="M0 0 C9.9 0 19.8 0 30 0 C30 0.33 30 0.66 30 1 C16.635 1.495 16.635 1.495 3 2 C3.33 4.97 3.66 7.94 4 11 C3.34 10.67 2.68 10.34 2 10 C1.34 6.7 0.68 3.4 0 0 Z " fill="#CDC7B7" transform="translate(374,525)"/>
<path d="M0 0 C0.66 0.33 1.32 0.66 2 1 C-2.62 5.62 -7.24 10.24 -12 15 C-12.66 14.67 -13.32 14.34 -14 14 C-9.67106815 8.81580806 -5.23435005 4.27293882 0 0 Z " fill="#D2D2D1" transform="translate(728,633)"/>
<path d="M0 0 C4.72224516 1.53472968 9.35855331 3.23945126 14 5 C13.01 5.66 12.02 6.32 11 7 C11 7.66 11 8.32 11 9 C8.03469503 7.64199529 5.70868729 6.07571737 3.25 3.9375 C2.63640625 3.41027344 2.0228125 2.88304687 1.390625 2.33984375 C0.93171875 1.89769531 0.4728125 1.45554687 0 1 C0 0.67 0 0.34 0 0 Z " fill="#BCBCBA" transform="translate(477,675)"/>
<path d="M0 0 C-0.33 1.32 -0.66 2.64 -1 4 C-1.70125 3.79375 -2.4025 3.5875 -3.125 3.375 C-6.63333587 2.91739097 -8.68273033 3.84911052 -12 5 C-15.375 5.125 -15.375 5.125 -18 5 C-13.34867054 0.55090225 -6.23621723 -0.4023366 0 0 Z " fill="#626260" transform="translate(608,124)"/>
<path d="M0 0 C3.63 0 7.26 0 11 0 C10.67 1.32 10.34 2.64 10 4 C8.35 4.33 6.7 4.66 5 5 C5.33 4.01 5.66 3.02 6 2 C3.03 1.505 3.03 1.505 0 1 C0 0.67 0 0.34 0 0 Z " fill="#CBCBCA" transform="translate(663,353)"/>
<path d="M0 0 C6.19887485 -0.37952295 10.4477112 0.1647887 16 3 C12.23331402 4.3805087 9.55210827 3.59568159 5.75 2.5625 C4.13351562 2.13130859 4.13351562 2.13130859 2.484375 1.69140625 C1.25460937 1.34916016 1.25460937 1.34916016 0 1 C0 0.67 0 0.34 0 0 Z " fill="#6B6B6A" transform="translate(557,698)"/>
<path d="M0 0 C-0.54269531 0.25394531 -1.08539062 0.50789062 -1.64453125 0.76953125 C-2.71767578 1.28580078 -2.71767578 1.28580078 -3.8125 1.8125 C-4.52019531 2.14894531 -5.22789062 2.48539063 -5.95703125 2.83203125 C-8.01129035 4.00645471 -9.41616278 5.25628016 -11 7 C-11 6.34 -11 5.68 -11 5 C-12.32 5.33 -13.64 5.66 -15 6 C-11.89463325 2.08453757 -5.00935571 -2.50467786 0 0 Z " fill="#545452" transform="translate(689,172)"/>
<path d="M0 0 C3.31012244 3.31012244 3.50351065 4.53159589 4 9 C2.68 9.33 1.36 9.66 0 10 C0 6.7 0 3.4 0 0 Z " fill="#F5F2E9" transform="translate(488,557)"/>
<path d="M0 0 C0.66 0.33 1.32 0.66 2 1 C0.88266271 2.50571657 -0.24410035 4.00444292 -1.375 5.5 C-2.00148438 6.3353125 -2.62796875 7.170625 -3.2734375 8.03125 C-3.84320312 8.6809375 -4.41296875 9.330625 -5 10 C-5.66 10 -6.32 10 -7 10 C-5.6062718 5.56541027 -3.39417765 3.12621626 0 0 Z " fill="#454544" transform="translate(679,196)"/>
<path d="M0 0 C0.66 0.33 1.32 0.66 2 1 C1.07038578 2.15224028 0.1309875 3.29659176 -0.8125 4.4375 C-1.59560547 5.39462891 -1.59560547 5.39462891 -2.39453125 6.37109375 C-4 8 -4 8 -7 9 C-5.44499019 5.18315774 -2.96404505 2.80804268 0 0 Z " fill="#B9B9B8" transform="translate(805,223)"/>
<path d="M0 0 C0.99 0.33 1.98 0.66 3 1 C3 2.32 3 3.64 3 5 C0.5 6.75 0.5 6.75 -2 8 C-1.34 5.36 -0.68 2.72 0 0 Z " fill="#6D5716" transform="translate(718,323)"/>
<path d="M0 0 C0.66 0.33 1.32 0.66 2 1 C-0.31 3.64 -2.62 6.28 -5 9 C-5 4.61031544 -2.87194899 3.23094261 0 0 Z " fill="#40403E" transform="translate(586,283)"/>
<path d="M0 0 C0.33 0.66 0.66 1.32 1 2 C1.66 2 2.32 2 3 2 C3 3.65 3 5.3 3 7 C1.02 5.35 -0.96 3.7 -3 2 C-2.01 1.34 -1.02 0.68 0 0 Z " fill="#B5B5B3" transform="translate(525,302)"/>
<path d="M0 0 C4.875 1.75 4.875 1.75 6 4 C4.68 3.67 3.36 3.34 2 3 C1.67 4.32 1.34 5.64 1 7 C0.67 4.69 0.34 2.38 0 0 Z " fill="#3D3D3C" transform="translate(509,273)"/>
<path d="M0 0 C2.31 0 4.62 0 7 0 C6.38125 0.28875 5.7625 0.5775 5.125 0.875 C2.86674235 1.93720042 2.86674235 1.93720042 1 4 C0.01 4 -0.98 4 -2 4 C-1.34 2.68 -0.68 1.36 0 0 Z " fill="#383836" transform="translate(624,619)"/>
<path d="M0 0 C0.66 0 1.32 0 2 0 C2 2.97 2 5.94 2 9 C-1 6 -1 6 -1.25 3.375 C-1 1 -1 1 0 0 Z " fill="#AE9550" transform="translate(743,404)"/>
<path d="M0 0 C0.75 1.75 0.75 1.75 1 4 C-0.9375 6.25 -0.9375 6.25 -3 8 C-3.33 7.34 -3.66 6.68 -4 6 C-2.68 4.02 -1.36 2.04 0 0 Z " fill="#585857" transform="translate(934,595)"/>
<path d="M0 0 C2 1 2 1 3 2 C3.66 2.33 4.32 2.66 5 3 C2.35261084 4.4606285 1.10551666 5 -2 5 C-1.125 1.125 -1.125 1.125 0 0 Z " fill="#60605E" transform="translate(672,178)"/>
</svg>
